<?xml version="1.0" encoding="UTF-8"?>
<!DOCTYPE svg PUBLIC "-//W3C//DTD SVG 1.1//EN" "http://www.w3.org/Graphics/SVG/1.1/DTD/svg11.dtd">
<!-- Creator: CorelDRAW X8 -->
<svg xmlns="http://www.w3.org/2000/svg" xml:space="preserve" width="240.246mm" height="62.0694mm" version="1.1" style="shape-rendering:geometricPrecision; text-rendering:geometricPrecision; image-rendering:optimizeQuality; fill-rule:evenodd; clip-rule:evenodd"
viewBox="0 0 9161 2367"
 xmlns:xlink="http://www.w3.org/1999/xlink">
 <defs>
  <style type="text/css">
   <![CDATA[
    .str0 {stroke:#2B2A29;stroke-width:7.6262}
    .fil0 {fill:black}
    .fil5 {fill:black}
    .fil4 {fill:red}
    .fil2 {fill:#2B2A29;fill-rule:nonzero}
    .fil3 {fill:red;fill-rule:nonzero}
    .fil1 {fill:white;fill-rule:nonzero}
   ]]>
  </style>
 </defs>
 <g id="Слой_x0020_1">
  <metadata id="CorelCorpID_0Corel-Layer"/>
  <path class="fil0" d="M5414 4c412,0 825,0 1238,0 0,412 0,825 0,1237 -413,0 -826,0 -1238,0 0,-412 0,-825 0,-1237z"/>
  <rect class="fil0" y="4" width="1238" height="1238"/>
  <path class="fil0" d="M1415 65c0,372 0,743 0,1115 372,0 743,0 1115,0 0,-372 0,-743 0,-1115 -372,0 -743,0 -1115,0zm-62 -61c413,0 826,0 1238,0 0,412 0,825 0,1237 -412,0 -825,0 -1238,0 0,-412 0,-825 0,-1237z"/>
  <path class="fil0 str0" d="M2707 4c413,0 825,0 1238,0 0,412 0,825 0,1237 -413,0 -825,0 -1238,0 0,-412 0,-825 0,-1237z"/>
  <path class="fil1" d="M980 597c0,-239 -184,-361 -360,-370 -187,0 -380,122 -380,370 0,247 193,371 380,362 176,0 360,-123 360,-362zm-132 0c0,158 -123,239 -239,239 -113,0 -236,-81 -236,-239 0,-159 123,-239 236,-239 116,0 239,80 239,239z"/>
  <path class="fil2" d="M2027 331c-23,-62 -81,-59 -103,3l-163 415 -135 -415c-24,-80 -141,-46 -113,44l178 549c14,44 31,68 63,68 33,0 49,-24 65,-66l153 -392 159 398c19,36 29,58 62,58 31,0 46,-17 63,-74l182 -541c27,-87 -84,-126 -111,-44l-137 415 -163 -418z"/>
  <path class="fil1" d="M3538 971c106,0 99,-132 0,-132l-332 0 0 -151 274 0c97,0 97,-132 0,-132l-274 0 0 -151 313 0c98,0 100,-131 0,-131l-391 0c-38,0 -67,26 -67,63l0 572c0,35 29,62 67,62l410 0z"/>
  <path class="fil2" d="M4495 700l158 0 152 218c61,76 165,2 113,-76l-134 -163c213,-86 161,-428 -95,-428l-268 0c-33,0 -60,26 -60,61l0 572c0,89 134,86 134,-2l0 -182zm0 -327l194 0c139,0 131,211 0,211l-194 0 0 -211z"/>
  <path class="fil1" d="M5960 897c0,89 153,87 153,0l0 -509 193 0c103,0 103,-129 0,-129l-549 0c-101,0 -101,129 0,129l203 0 0 509z"/>
  <path class="fil2" d="M7314 712l0 207c0,88 133,90 133,1l0 -208 227 -330c53,-67 -59,-141 -113,-67l-178 263 -176 -263c-52,-79 -161,3 -113,67l220 330z"/>
  <path class="fil3" d="M8438 156c-69,-105 -245,11 -150,124 92,107 184,223 278,341l-302 384c-86,103 84,226 161,116l272 -363 277 356c81,111 247,3 164,-110l-307 -383c91,-118 185,-234 276,-341 85,-98 -67,-229 -145,-127l-262 328 -262 -325z"/>
  <rect class="fil4" transform="matrix(0.480963 -0.430682 0.430682 0.480963 649.25 734.197)" width="187" height="610" rx="93" ry="93"/>
  <path class="fil5" d="M4122 65c0,372 0,743 0,1115 372,0 743,0 1114,0 0,-372 0,-743 0,-1115 -371,0 -742,0 -1114,0zm-62 -61c413,0 826,0 1238,0 0,412 0,825 0,1237 -412,0 -825,0 -1238,0 0,-412 0,-825 0,-1237z"/>
  <path class="fil0" d="M6829 65c0,372 0,743 0,1115 372,0 743,0 1114,0 0,-372 0,-743 0,-1115 -371,0 -742,0 -1114,0zm-62 -61c413,0 826,0 1238,0 0,412 0,825 0,1237 -412,0 -825,0 -1238,0 0,-412 0,-825 0,-1237z"/>
  <path class="fil3" d="M3195 2228c0,-33 -14,-61 -40,-84 -26,-20 -55,-30 -87,-30 -36,0 -66,10 -90,30 -26,23 -39,51 -39,84 0,34 13,61 39,82 24,22 54,32 90,32 33,0 62,-10 87,-32 26,-21 40,-48 40,-82z"/>
  <path class="fil0" d="M3368 2210c7,1 15,2 22,2l0 -324c0,-1 0,-6 -1,-7 0,0 0,0 -1,0 -5,-3 -17,-2 -22,-1l-1 0 -1 0c-19,2 -35,-9 -45,-26l0 -1 -1 -1c-6,-13 -8,-28 -8,-43 0,-15 2,-31 8,-45l1 -1 0 -1c11,-17 29,-25 48,-21 22,2 44,3 66,3 26,0 51,-1 77,-3l29 -2 -1 17c13,-8 26,-14 40,-20 34,-12 69,-17 105,-17 48,0 97,9 136,39l0 1c42,33 59,81 59,134l0 320c8,0 18,-2 23,-3 21,-6 41,1 53,19 10,15 14,31 14,49 0,17 -4,34 -14,48 -11,17 -29,26 -50,22 -26,-1 -52,-3 -78,-3 -33,0 -67,2 -100,3 -20,4 -39,-4 -51,-21 -11,-14 -15,-31 -15,-48 0,-17 3,-35 14,-49 12,-19 32,-26 54,-20 2,0 3,0 5,0l0 -293c0,-15 -3,-36 -15,-47 -12,-10 -36,-12 -51,-12 -28,0 -56,5 -83,17 -18,8 -34,20 -48,35l0 303c4,-1 9,-2 12,-3 21,-6 40,3 51,21 9,14 12,31 12,47 0,16 -3,32 -12,46 -10,18 -27,28 -47,24 -28,-2 -56,-3 -85,-3 -34,0 -68,2 -102,3 -21,3 -37,-8 -46,-26l0 0 -1 -1c-6,-14 -8,-29 -8,-44 0,-15 2,-30 8,-44l1 0 0 -1c10,-18 28,-28 49,-22zm810 -110c6,30 18,59 37,82 26,31 59,45 99,45 32,0 75,-1 106,-13 24,-9 47,-27 65,-44 14,-15 33,-23 53,-22 18,1 34,8 47,20l1 0 0 1c13,12 21,28 22,46 1,21 -8,40 -22,56l-1 0 0 1c-35,34 -75,60 -121,76 -47,15 -101,19 -150,19 -89,0 -165,-32 -221,-102 -50,-64 -71,-140 -71,-221 0,-82 20,-159 71,-224 56,-70 132,-101 221,-101 89,0 165,31 220,101 52,65 73,141 73,223l0 1 -2 58 -24 0c-81,-2 -162,-3 -243,-4 -40,0 -80,0 -120,1 -13,0 -27,0 -40,1zm582 -489c-4,-21 4,-41 22,-53 16,-10 34,-13 52,-13 17,0 35,3 49,13 19,11 29,30 26,52l-3 65c-1,15 -1,30 -1,46 0,4 0,11 0,16l1 0 2 0c29,2 59,3 89,3 30,0 60,-1 89,-3 20,-2 38,5 51,21 11,13 15,30 15,47 0,18 -4,34 -15,48 -12,16 -30,24 -50,23l-1 0c-32,-2 -65,-3 -97,-3 -27,0 -54,0 -80,3l-2 0 -1 0c0,0 0,0 0,0 0,5 0,11 0,14l0 265c0,18 2,43 14,56 13,14 38,16 55,16 23,0 46,-4 65,-19 19,-14 32,-38 40,-59 7,-19 24,-30 44,-32 17,-3 34,0 51,6 17,8 31,19 40,35 11,19 10,40 1,60l0 1 -1 0c-26,53 -64,102 -118,127 -39,17 -88,21 -129,21 -56,0 -112,-13 -153,-53 -40,-38 -55,-88 -55,-142l0 -282c0,-2 -1,-10 -3,-12 -7,-4 -22,-3 -29,-2 -21,2 -39,-6 -51,-23 -10,-13 -14,-30 -14,-47 0,-16 4,-32 14,-46l0 0c12,-17 30,-25 50,-23 10,0 24,0 28,-10l0 0 0 -1c9,-22 6,-89 5,-115zm-574 349c43,1 86,2 129,2 43,0 86,0 129,-2 -7,-23 -19,-45 -35,-63 -26,-27 -58,-39 -95,-39 -37,0 -68,12 -93,38 -17,19 -28,41 -35,64z"/>
 </g>
</svg>
