<?xml version="1.0" encoding="UTF-8"?>
<!DOCTYPE svg PUBLIC "-//W3C//DTD SVG 1.1//EN" "http://www.w3.org/Graphics/SVG/1.1/DTD/svg11.dtd">
<!-- Creator: CorelDRAW X8 -->
<svg xmlns="http://www.w3.org/2000/svg" xml:space="preserve" width="2353.67mm" height="214.037mm" version="1.1" style="shape-rendering:geometricPrecision; text-rendering:geometricPrecision; image-rendering:optimizeQuality; fill-rule:evenodd; clip-rule:evenodd"
viewBox="0 0 210776 19167"
 xmlns:xlink="http://www.w3.org/1999/xlink">
 <defs>
  <style type="text/css">
   <![CDATA[
    .fil0 {fill:url(#id0)}
   ]]>
  </style>
  <linearGradient id="id0" gradientUnits="userSpaceOnUse" x1="7167.64" y1="3488.93" x2="210776" y2="5824.41">
   <stop offset="0" style="stop-opacity:1; stop-color:#AAE7FA"/>
   <stop offset="0.211765" style="stop-opacity:1; stop-color:#2BC0ED"/>
   <stop offset="0.611765" style="stop-opacity:1; stop-color:#787DDB"/>
   <stop offset="0.811765" style="stop-opacity:1; stop-color:#5B4166"/>
   <stop offset="1" style="stop-opacity:1; stop-color:#2E2754"/>
  </linearGradient>
 </defs>
 <g id="Слой_x0020_2">
  <metadata id="CorelCorpID_0Corel-Layer"/>
  <path class="fil0" d="M0 17659l0 -3715 0 -8471 327 0 0 890 -1 0c425,460 696,928 696,928l0 2888 832 514 0 -1813 1910 0 0 1628 337 0 0 -6434 799 0 0 3952 1058 0 0 -1588 410 0 0 -692 1771 0 0 692 521 0 0 3144 1462 0 0 -2288 2 0c-1,-6 -2,-13 -2,-19 0,-354 353,-643 787,-643 434,0 786,289 786,643 0,6 -1,13 -1,19l1 0c0,1645 0,3160 0,4774l622 0c0,-829 0,-1658 0,-2486l955 0c0,828 0,1657 0,2486l281 0c0,-1469 0,-2937 0,-4406l337 0c0,1469 0,2937 0,4406l337 0c0,-906 0,-1813 0,-2719l284 0c0,1295 0,2590 0,3885 921,-314 2209,-510 3634,-510 215,0 427,5 636,13l0 -3023 465 0 0 -399 285 0 0 399 39 0 0 -1588 146 0 0 -933 -146 0 0 -1720 146 0 146 0 2732 0 0 -154 -577 0c-13,-37 -20,-76 -20,-115 0,-286 353,-520 801,-543l8 -311c-452,-19 -809,-254 -809,-541 0,-294 372,-532 838,-543l21 -809 96 0 8 811c438,28 779,259 779,541 0,278 -335,507 -767,539l4 316c314,25 577,154 695,330l0 -920 800 0 0 1245 -1742 0 0 154 2946 0 0 919 168 0 0 -695 1560 0 0 49 308 0 0 646 102 0 0 46 417 0 0 1548 642 0 0 -3968 801 0 0 3262 20 0c0,-1 0,-3 0,-5 0,-354 352,-643 787,-643 434,0 786,289 786,643 0,6 -1,13 -1,19l1 0 0 1550 658 0 0 738 833 0 0 -2333c0,0 271,-470 696,-933l0 0 0 -892 589 0 0 -2734 94 0 0 -1105 86 0 0 1105 85 0 0 -313 328 0 0 -1745 86 0 0 1745 156 0 0 994 475 0 0 2053 702 0 0 -1297 171 0 0 1297 366 0 0 892 -1 0c425,463 696,933 696,933l0 2900 168 104 0 -7523 850 0 0 -2730 1059 0 0 9714 76 0 0 -2093 338 0 0 2093 281 0 0 -165 956 0 0 2496 623 0 0 -4794 1 0c0,-5 -1,-12 -1,-18 0,-44 5,-87 16,-128 -167,-116 -267,-270 -267,-438 0,-340 415,-621 946,-655l9 -268c-435,-32 -773,-261 -773,-540 0,-286 353,-520 800,-543l178 3c430,33 763,262 763,540 0,274 -326,501 -751,537l4 273c523,38 930,316 930,653 0,176 -112,337 -292,455 7,36 13,73 13,111 0,6 -1,13 -2,18l2 0 0 948 1465 0 0 -1330 0 -239 0 -238 520 0 0 -695 1775 0 0 695 410 0 0 962 5403 0 0 -759c72,-91 152,-185 239,-279l-2 0 0 -892 589 0 0 -2734 95 0 0 -1105 85 0 0 1105 85 0 0 -313 329 0 0 -1745 85 0 0 1745 157 0 0 994 474 0 0 2053 703 0 0 -1298 171 0 0 1298 366 0 0 892 -2 0c425,463 698,933 698,933l0 2900 166 104 0 -7523 850 0 0 -2730 1060 0 0 3789 525 1351 0 5166 1018 0 0 -3640 2111 0 0 -201 127 0 0 -2295 339 0 0 2295 464 0 0 201 123 0 0 4094 1027 0 0 -33 246 0 0 -895 114 0 0 895 380 0 0 33 8020 0 0 -422c93,-73 227,-123 382,-135l1 -218c-154,-12 -290,-62 -383,-135l0 -474c95,-74 234,-125 391,-136l7 -559 64 0 14 557c312,8 562,173 562,374 0,199 -239,360 -543,375l6 214c301,16 537,177 537,374 0,67 -28,131 -77,185l1414 0 0 -1611 4956 0 0 1611 5186 0 0 -964 384 0 0 964 3081 0 0 -120 0 -643 0 -193 0 -450 0 -327 0 -119 0 -25 64 0 0 -759 57 0 0 759 57 0 0 -215 220 0 0 -1198 57 0 0 1198 105 0 0 240 177 0 0 145 2115 -26 0 -28c0,-1041 5,-1364 5,-2482l292 0 0 2538 173 0 0 -3437 0 -694 0 -693 337 0 0 693 1424 0 0 1439 1387 0 0 2381 1085 0 291 0 0 1026 1253 0 0 -707 6 0 0 -31 1887 0c225,-13 494,-22 786,-26l0 -363c-799,-8 -1417,-66 -1417,-136 0,-46 273,-87 690,-112l0 -412c-378,-26 -623,-65 -623,-111 0,-44 245,-85 623,-110l0 -417c-339,-25 -556,-64 -556,-108 0,-69 559,-128 1283,-136l0 -86 -91 0 0 -814 91 0 0 -535c-383,-71 -673,-407 -673,-810 0,-439 345,-799 779,-823l0 -332c-195,-22 -346,-188 -346,-389 0,-216 175,-391 391,-391 216,0 392,175 392,391 0,195 -143,356 -328,386l0 337c425,32 760,388 760,821 0,432 -331,786 -754,822l0 523 293 0 0 814 -293 0 0 85c790,2 1424,63 1424,137 0,75 -634,136 -1424,137l0 361c571,1 1065,30 1324,71 -5,36 -8,74 -8,110 0,8 0,16 0,24 -259,41 -751,69 -1316,70l0 360c688,1 1273,38 1502,89 21,27 44,53 68,78 -111,44 -470,80 -948,97l0 381c630,20 1075,70 1075,127 0,54 -378,101 -929,123l0 389c221,8 417,18 576,33 -7,27 -12,55 -17,83l1422 0 0 -747 -326 0 0 -222 326 0 0 -1769 0 -424 0 -424 1208 0 0 424 496 0 0 3162 874 0 0 -4830 1703 0 0 3166 1953 0 0 -2619 0 -496 480 0 -10 65 -1 6 -63 425 257 0 0 4283 3392 0 0 -904 110 0 0 904 91 0 0 -199 110 0 0 199 426 0 0 -1664 1139 0 0 1664 1821 0 0 -3412 3829 0 0 3412 3586 0c-8,-30 -12,-60 -12,-91 0,-290 359,-550 929,-730l0 -5193 302 0 0 -761 68 0 0 -771 111 0 0 771 98 0 0 -394 111 0 0 394 276 0 0 761 302 0 0 1858 512 0 0 3083c30,0 59,0 89,0l0 -591 193 0 0 1664 1340 0 4 -3c8,-5 17,-10 25,-15 17,-11 34,-21 52,-29 7,-3 14,-7 20,-9 12,-6 23,-10 34,-15 19,-7 38,-13 58,-19 28,-9 59,-15 89,-19l0 -7 147 0 0 -169 -147 0 0 -7c-30,-4 -61,-11 -89,-19 -20,-5 -39,-12 -58,-19 -18,-8 -36,-16 -54,-25 -11,-4 -21,-9 -32,-16 -6,-3 -13,-8 -20,-11 -8,-6 -17,-11 -25,-17 -24,-17 -48,-34 -70,-53 -7,-7 -14,-14 -22,-21 -127,-122 -206,-294 -206,-484 0,-191 79,-363 206,-485 2,-2 5,-4 7,-6 14,-13 28,-25 43,-37 10,-7 18,-14 27,-21 14,-9 26,-17 40,-25 17,-11 34,-21 52,-29 62,-31 130,-53 201,-63l0 -7 147 0 0 -168 -147 0 0 -7c-30,-5 -61,-11 -89,-19 -20,-6 -39,-13 -58,-20 -18,-7 -36,-15 -54,-23 -18,-9 -35,-19 -52,-29 -8,-5 -17,-11 -25,-16 -24,-17 -48,-35 -70,-54 -7,-7 -14,-13 -22,-20 -78,-75 -138,-170 -172,-275 -22,-66 -34,-136 -34,-210 0,-36 3,-73 8,-108 25,-147 96,-278 198,-376 8,-7 15,-14 22,-20 22,-20 46,-38 70,-55 8,-5 17,-10 25,-15 17,-11 34,-20 52,-28 18,-9 36,-17 54,-25 19,-7 38,-13 58,-19 28,-8 59,-15 89,-19l0 -7 147 0 0 -169 -147 0 0 -7c-30,-4 -61,-11 -89,-19 -20,-5 -39,-12 -58,-19 -9,-4 -18,-7 -27,-11 -27,-13 -54,-26 -79,-41 -8,-6 -17,-11 -25,-16 -179,-121 -298,-326 -298,-559 0,-191 79,-362 206,-485 8,-7 15,-13 22,-19 9,-8 19,-16 28,-24 10,-7 18,-14 27,-20 14,-10 26,-18 40,-26 17,-11 34,-20 52,-29 24,-12 49,-22 75,-32 5,-1 10,-3 14,-5 17,-5 34,-10 51,-14 21,-4 41,-9 61,-12l0 -7 625 0 0 -245 328 0 0 -219 548 0 0 464 328 0 0 -703 106 0 0 703 1066 0 0 1c9,0 18,-1 27,-1 372,0 672,301 672,673 0,371 -300,672 -672,672 -9,0 -18,0 -27,-1l0 1 -147 0 0 169 147 0 0 1c9,-1 18,-1 27,-1 372,0 672,301 672,672 0,372 -300,673 -672,673 -9,0 -18,0 -27,-1l0 1 -147 0 0 168 147 0 0 1c9,-1 18,-1 27,-1 372,0 672,301 672,673 0,371 -300,672 -672,672 -9,0 -18,0 -27,-1l0 1 -147 0 0 169 147 0 0 0c9,0 18,0 27,0 141,0 271,43 379,116l704 0 0 -1664 517 0 0 -2455 316 0 0 878 -1 0c411,456 673,919 673,919l0 2829 802 0c86,-254 29,-2783 29,-3260l2142 0 0 -2752 772 0 0 2752 1022 0 0 -414 396 0 0 -684 272 0 272 0 987 0 180 0 69 0 0 684 374 0 0 -3415 1026 0 0 5089 445 0 0 -826 2 0c-1,-7 -2,-12 -2,-18 0,-352 341,-637 760,-637 420,0 760,285 760,637 0,6 -1,11 -2,18l2 0 0 826 1794 0 0 -462 43 0 0 -533 5779 0 0 2564 277 0 0 -2072 326 0 0 2062 212 10 60 0 0 -165 569 0 0 -958 956 0 0 -1314 1 0c0,-6 -1,-12 -1,-18 0,-44 6,-86 15,-127 -161,-115 -257,-267 -257,-433 0,-337 401,-614 914,-648l7 -266c-419,-30 -746,-257 -746,-534 0,-283 341,-514 774,-537l8 -307c-437,-19 -782,-252 -782,-536 0,-290 359,-526 809,-537l20 -800 93 0 9 801c422,29 751,258 751,536 0,275 -323,501 -740,534l4 312c415,33 736,259 736,534 0,271 -315,496 -724,532l2 269c505,38 898,313 898,647 0,175 -107,333 -281,449 7,36 12,73 12,111 0,6 -1,12 -1,18l1 0 0 1314 678 0 0 958 737 0 0 -3122 503 0 0 -688 1713 0 0 688 342 0 0 496 887 0 0 151 2209 0 0 2056 930 0 0 1015 801 0 3 -2 0 -1013 199 0 0 -413 -199 0 0 -1443c0,0 37,-66 106,-174l93 0 0 -140 645 0 0 -3591 397 0 0 -605 91 0 0 -1093 83 0 0 1093 82 0 0 -310 317 0 0 -1725 82 0 0 1725 152 0 0 915 679 0 0 3591 531 0 0 -78 0 -128 0 -334 0 -129 0 -2106 92 0 0 1284 354 0 0 882 -2 0c196,219 358,439 474,609l360 0 0 -4157 821 0 0 -2700 1024 0 0 3353 0 4462 1133 28 0 -1227 887 0 0 -420 -389 0 0 -1024 3673 0 0 1024 -471 0 0 3634 1756 0 0 -2397 0 -1677 0 -412 513 0 0 -642 0 -845 0 -139 0 -149 0 -89 303 0 0 -763 278 0 0 -55 5 0 0 -57 -5 0 0 -282 112 0 0 140 0 141 0 59 0 54 92 0 0 -376 5 0 0 -397 111 0 0 397 0 262 0 61 0 53 69 0 0 763 302 0 0 89 0 194 0 180 0 759 0 1457 -8 8 0 3663 5196 0 0 212 3120 0 0 -2570 625 0c-6,-11 -11,-21 -16,-32l7 -25 0 -587 -51 -233 0 0c10,-236 156,-437 362,-526l0 -923 110 -1 0 889c30,-7 61,-11 93,-13l0 -281 109 0 0 285c107,13 207,55 289,118l1 1c14,10 26,20 39,32l1 2c13,10 25,22 35,34l2 2c34,37 64,78 88,123l2 4c7,13 14,27 20,42l3 6c5,14 11,29 16,43l2 7c5,15 9,31 12,46l2 6c4,15 6,31 8,48l1 4c2,17 4,34 5,52l1 0 -52 233 0 587 17 57 1284 0 0 371 2 0 0 445 -2 0 0 1754 1045 0 0 -139c0,-953 0,-588 0,-2060l292 0 0 -298 0 -56 0 -421 0 -420 448 0 0 -518 1370 0 0 518 447 0 0 420 671 0 0 -805 0 -629 0 -62 0 -290 0 -563 535 0 0 563 0 313 0 45 0 623 0 805 2993 0 0 -287 647 0 0 957 -12 -1 0 281 12 1 0 1061 883 0 0 -2299 518 0 0 -865 1210 0 0 1927 327 0 0 1237 5961 0 0 753 368 0 0 -239 60 0 0 448 207 0 0 -633 291 0 0 633 0 1274 0 55 0 134 0 59 0 135 0 2010 0 0 0 5223 -210776 0 0 -1509 0 1zm200951 -8344l-12 0 0 135 12 0 0 -135zm0 194l-12 0 0 135 12 0 0 -135zm8899 768l138 0c-37,-65 -84,-123 -138,-174l0 174zm926 -768l-292 0 0 -59 292 0 0 59zm0 -194l-292 0 0 -1237 292 0 0 1237zm-20251 -3978l-110 -1 0 -104 110 0 0 105zm3064 4909c0,2 1,6 2,8 -1,-2 -2,-6 -2,-8zm-83197 -2060l-69 458 -5 34 -42 280 -4 30 -3 14 -38 258 0 0 -10 65 -67 445 238 0 0 -1584 0 0zm21825 1468l142 0 0 -17 0 -152 -370 0 0 169 228 0 0 0zm-35252 -910l0 -638 291 0 0 638m33707 741l0 169 369 0 0 -169 -369 0zm1026 -1513l0 168 370 0 0 -168 -370 0zm-1026 0l0 168 369 0 0 -168 -369 0zm1026 -1514l0 169 370 0 0 -169 -370 0zm-1026 0l0 169 369 0 0 -169 -369 0zm-13334 1456l-6 0 0 -85 6 22 0 63zm-6 -1024l0 -90c3,19 5,40 5,61l1 0 -6 29zm-355 -1514l-111 0 0 -108 111 0 0 108zm-15345 3261c-161,6 -334,7 -514,8l0 360c179,0 352,2 514,7l0 -375zm-1354 -647l0 399c185,-9 395,-15 619,-18l0 -362c-225,-2 -434,-9 -619,-19zm0 -637l0 403c185,-11 394,-17 619,-20l0 -362c-227,-3 -436,-10 -619,-21z"/>
 </g>
</svg>
