<?xml version="1.0" encoding="UTF-8"?>
<!DOCTYPE svg PUBLIC "-//W3C//DTD SVG 1.1//EN" "http://www.w3.org/Graphics/SVG/1.1/DTD/svg11.dtd">
<!-- Creator: CorelDRAW X8 -->
<svg xmlns="http://www.w3.org/2000/svg" xml:space="preserve" width="193.093mm" height="7.7756mm" version="1.1" style="shape-rendering:geometricPrecision; text-rendering:geometricPrecision; image-rendering:optimizeQuality; fill-rule:evenodd; clip-rule:evenodd"
viewBox="0 0 1999 80"
 xmlns:xlink="http://www.w3.org/1999/xlink">
 <defs>
  <style type="text/css">
   <![CDATA[
    .fil1 {fill:#494F70;fill-rule:nonzero}
    .fil0 {fill:#CED3ED;fill-rule:nonzero}
   ]]>
  </style>
 </defs>
 <g id="Слой_x0020_4">
  <metadata id="CorelCorpID_0Corel-Layer"/>
  <g id="_1063209344">
   <path class="fil0" d="M711 7l0 73 -657 0c-21,0 -59,0 -53,-20 1,-5 3,-11 7,-17 9,-14 22,-30 36,-36 3,-2 7,-3 10,-3 0,0 405,-7 657,3l0 0z"/>
   <path class="fil0" d="M1355 80l0 -73c-251,-10 -428,-7 -624,-4 -3,0 -6,0 -10,1l0 76 634 0 0 0z"/>
   <path class="fil0" d="M1999 80l0 -73c-252,-10 -429,-7 -624,-4 -3,0 -7,0 -10,1l0 76 634 0 0 0z"/>
   <path class="fil1" d="M757 36c0,6 -4,11 -10,11 -5,0 -9,-5 -9,-11 0,-6 4,-11 9,-11 6,0 10,5 10,11z"/>
   <path class="fil1" d="M791 36c0,6 -4,11 -9,11 -6,0 -10,-5 -10,-11 0,-6 4,-11 10,-11 5,0 9,5 9,11z"/>
   <path class="fil1" d="M826 36c0,6 -5,11 -10,11 -5,0 -10,-5 -10,-11 0,-6 5,-11 10,-11 5,0 10,5 10,11z"/>
   <path class="fil1" d="M860 36c0,6 -4,11 -10,11 -5,0 -9,-5 -9,-11 0,-6 4,-11 9,-11 6,0 10,5 10,11z"/>
   <path class="fil1" d="M894 36c0,6 -4,11 -9,11 -6,0 -10,-5 -10,-11 0,-6 4,-11 10,-11 5,0 9,5 9,11z"/>
   <path class="fil1" d="M929 36c0,6 -5,11 -10,11 -5,0 -10,-5 -10,-11 0,-6 5,-11 10,-11 5,0 10,5 10,11z"/>
   <path class="fil1" d="M963 36c0,6 -5,11 -10,11 -5,0 -9,-5 -9,-11 0,-6 4,-11 9,-11 5,0 10,5 10,11z"/>
   <path class="fil1" d="M997 36c0,6 -4,11 -10,11 -5,0 -9,-5 -9,-11 0,-6 4,-11 9,-11 6,0 10,5 10,11z"/>
   <path class="fil1" d="M1031 36c0,6 -4,11 -9,11 -6,0 -10,-5 -10,-11 0,-6 4,-11 10,-11 5,0 9,5 9,11z"/>
   <path class="fil1" d="M1066 36c0,6 -5,11 -10,11 -5,0 -10,-5 -10,-11 0,-6 5,-11 10,-11 5,0 10,5 10,11z"/>
   <path class="fil1" d="M1100 36c0,6 -4,11 -10,11 -5,0 -9,-5 -9,-11 0,-6 4,-11 9,-11 6,0 10,5 10,11z"/>
   <path class="fil1" d="M1134 36c0,6 -4,11 -9,11 -6,0 -10,-5 -10,-11 0,-6 4,-11 10,-11 5,0 9,5 9,11z"/>
   <path class="fil1" d="M1169 36c0,6 -5,11 -10,11 -5,0 -10,-5 -10,-11 0,-6 5,-11 10,-11 5,0 10,5 10,11z"/>
   <path class="fil1" d="M1203 36c0,6 -4,11 -10,11 -5,0 -9,-5 -9,-11 0,-6 4,-11 9,-11 6,0 10,5 10,11z"/>
   <path class="fil1" d="M1237 36c0,6 -4,11 -9,11 -6,0 -10,-5 -10,-11 0,-6 4,-11 10,-11 5,0 9,5 9,11z"/>
   <path class="fil1" d="M1272 36c0,6 -5,11 -10,11 -5,0 -10,-5 -10,-11 0,-6 5,-11 10,-11 5,0 10,5 10,11z"/>
   <path class="fil1" d="M1306 36c0,6 -5,11 -10,11 -5,0 -9,-5 -9,-11 0,-6 4,-11 9,-11 5,0 10,5 10,11z"/>
   <path class="fil1" d="M1340 36c0,6 -4,11 -10,11 -5,0 -9,-5 -9,-11 0,-6 4,-11 9,-11 6,0 10,5 10,11z"/>
   <path class="fil1" d="M1400 36c0,6 -4,11 -9,11 -5,0 -10,-5 -10,-11 0,-6 5,-11 10,-11 5,0 9,5 9,11z"/>
   <path class="fil1" d="M1435 36c0,6 -5,11 -10,11 -5,0 -9,-5 -9,-11 0,-6 4,-11 9,-11 5,0 10,5 10,11z"/>
   <path class="fil1" d="M1469 36c0,6 -4,11 -10,11 -5,0 -9,-5 -9,-11 0,-6 4,-11 9,-11 6,0 10,5 10,11z"/>
   <path class="fil1" d="M1503 36c0,6 -4,11 -9,11 -6,0 -10,-5 -10,-11 0,-6 4,-11 10,-11 5,0 9,5 9,11z"/>
   <path class="fil1" d="M1538 36c0,6 -5,11 -10,11 -5,0 -10,-5 -10,-11 0,-6 5,-11 10,-11 5,0 10,5 10,11z"/>
   <path class="fil1" d="M1572 36c0,6 -4,11 -10,11 -5,0 -9,-5 -9,-11 0,-6 4,-11 9,-11 6,0 10,5 10,11z"/>
   <path class="fil1" d="M1606 36c0,6 -4,11 -9,11 -6,0 -10,-5 -10,-11 0,-6 4,-11 10,-11 5,0 9,5 9,11z"/>
   <path class="fil1" d="M1641 36c0,6 -5,11 -10,11 -5,0 -10,-5 -10,-11 0,-6 5,-11 10,-11 5,0 10,5 10,11z"/>
   <path class="fil1" d="M1675 36c0,6 -4,11 -10,11 -5,0 -9,-5 -9,-11 0,-6 4,-11 9,-11 6,0 10,5 10,11z"/>
   <path class="fil1" d="M1709 36c0,6 -4,11 -9,11 -6,0 -10,-5 -10,-11 0,-6 4,-11 10,-11 5,0 9,5 9,11z"/>
   <path class="fil1" d="M1743 36c0,6 -4,11 -9,11 -5,0 -10,-5 -10,-11 0,-6 5,-11 10,-11 5,0 9,5 9,11z"/>
   <path class="fil1" d="M1778 36c0,6 -5,11 -10,11 -5,0 -9,-5 -9,-11 0,-6 4,-11 9,-11 5,0 10,5 10,11z"/>
   <path class="fil1" d="M1812 36c0,6 -4,11 -10,11 -5,0 -9,-5 -9,-11 0,-6 4,-11 9,-11 6,0 10,5 10,11z"/>
   <path class="fil1" d="M1846 36c0,6 -4,11 -9,11 -5,0 -10,-5 -10,-11 0,-6 5,-11 10,-11 5,0 9,5 9,11z"/>
   <path class="fil1" d="M1881 36c0,6 -5,11 -10,11 -5,0 -9,-5 -9,-11 0,-6 4,-11 9,-11 5,0 10,5 10,11z"/>
   <path class="fil1" d="M1915 36c0,6 -4,11 -10,11 -5,0 -9,-5 -9,-11 0,-6 4,-11 9,-11 6,0 10,5 10,11z"/>
   <path class="fil1" d="M1949 36c0,6 -4,11 -9,11 -6,0 -10,-5 -10,-11 0,-6 4,-11 10,-11 5,0 9,5 9,11z"/>
   <path class="fil1" d="M1984 36c0,6 -5,11 -10,11 -5,0 -10,-5 -10,-11 0,-6 5,-11 10,-11 5,0 10,5 10,11z"/>
   <path class="fil1" d="M113 36c0,6 -5,11 -10,11 -5,0 -9,-5 -9,-11 0,-6 4,-11 9,-11 5,0 10,5 10,11z"/>
   <path class="fil1" d="M147 36c0,6 -4,11 -10,11 -5,0 -9,-5 -9,-11 0,-6 4,-11 9,-11 6,0 10,5 10,11z"/>
   <path class="fil1" d="M181 36c0,6 -4,11 -9,11 -6,0 -10,-5 -10,-11 0,-6 4,-11 10,-11 5,0 9,5 9,11z"/>
   <path class="fil1" d="M215 36c0,6 -4,11 -9,11 -5,0 -10,-5 -10,-11 0,-6 5,-11 10,-11 5,0 9,5 9,11z"/>
   <path class="fil1" d="M250 36c0,6 -4,11 -10,11 -5,0 -9,-5 -9,-11 0,-6 4,-11 9,-11 6,0 10,5 10,11z"/>
   <path class="fil1" d="M284 36c0,6 -4,11 -9,11 -6,0 -10,-5 -10,-11 0,-6 4,-11 10,-11 5,0 9,5 9,11z"/>
   <path class="fil1" d="M318 36c0,6 -4,11 -9,11 -5,0 -10,-5 -10,-11 0,-6 5,-11 10,-11 5,0 9,5 9,11z"/>
   <path class="fil1" d="M353 36c0,6 -4,11 -10,11 -5,0 -9,-5 -9,-11 0,-6 4,-11 9,-11 6,0 10,5 10,11z"/>
   <path class="fil1" d="M387 36c0,6 -4,11 -9,11 -6,0 -10,-5 -10,-11 0,-6 4,-11 10,-11 5,0 9,5 9,11z"/>
   <path class="fil1" d="M421 36c0,6 -4,11 -9,11 -6,0 -10,-5 -10,-11 0,-6 4,-11 10,-11 5,0 9,5 9,11z"/>
   <path class="fil1" d="M456 36c0,6 -5,11 -10,11 -5,0 -10,-5 -10,-11 0,-6 5,-11 10,-11 5,0 10,5 10,11z"/>
   <path class="fil1" d="M490 36c0,6 -4,11 -10,11 -5,0 -9,-5 -9,-11 0,-6 4,-11 9,-11 6,0 10,5 10,11z"/>
   <path class="fil1" d="M524 36c0,6 -4,11 -9,11 -6,0 -10,-5 -10,-11 0,-6 4,-11 10,-11 5,0 9,5 9,11z"/>
   <path class="fil1" d="M559 36c0,6 -5,11 -10,11 -5,0 -10,-5 -10,-11 0,-6 5,-11 10,-11 5,0 10,5 10,11z"/>
   <path class="fil1" d="M593 36c0,6 -4,11 -10,11 -5,0 -9,-5 -9,-11 0,-6 4,-11 9,-11 6,0 10,5 10,11z"/>
   <path class="fil1" d="M627 36c0,6 -4,11 -9,11 -6,0 -10,-5 -10,-11 0,-6 4,-11 10,-11 5,0 9,5 9,11z"/>
   <path class="fil1" d="M661 36c0,6 -4,11 -9,11 -5,0 -10,-5 -10,-11 0,-6 5,-11 10,-11 5,0 9,5 9,11z"/>
   <path class="fil1" d="M696 36c0,6 -4,11 -10,11 -5,0 -9,-5 -9,-11 0,-6 4,-11 9,-11 6,0 10,5 10,11z"/>
   <path class="fil1" d="M63 28c0,12 -14,23 -31,23 -10,0 -18,-3 -24,-8 9,-14 22,-30 36,-36 11,3 19,11 19,21l0 0 0 0z"/>
  </g>
 </g>
</svg>
