<?xml version="1.0" encoding="UTF-8"?>
<!DOCTYPE svg PUBLIC "-//W3C//DTD SVG 1.1//EN" "http://www.w3.org/Graphics/SVG/1.1/DTD/svg11.dtd">
<!-- Creator: CorelDRAW X8 -->
<svg xmlns="http://www.w3.org/2000/svg" xml:space="preserve" width="193.093mm" height="7.7756mm" version="1.1" style="shape-rendering:geometricPrecision; text-rendering:geometricPrecision; image-rendering:optimizeQuality; fill-rule:evenodd; clip-rule:evenodd"
viewBox="0 0 1656 67"
 xmlns:xlink="http://www.w3.org/1999/xlink">
 <defs>
  <style type="text/css">
   <![CDATA[
    .fil1 {fill:#494F70;fill-rule:nonzero}
    .fil0 {fill:#CED3ED;fill-rule:nonzero}
   ]]>
  </style>
 </defs>
 <g id="Слой_x0020_4">
  <metadata id="CorelCorpID_0Corel-Layer"/>
  <g id="_1063197568">
   <path class="fil0" d="M1067 5l0 62 544 0c18,0 49,-1 44,-18 -1,-3 -3,-8 -6,-13 -7,-12 -18,-25 -29,-30 -3,-2 -6,-3 -9,-3 0,0 -336,-6 -544,2l0 0z"/>
   <path class="fil0" d="M533 67l0 -62c208,-7 355,-5 517,-3 3,0 5,0 8,1l0 64 -525 0 0 0z"/>
   <path class="fil0" d="M0 67l0 -62c208,-7 355,-5 517,-3 2,0 5,0 8,1l0 64 -525 0 0 0z"/>
   <path class="fil1" d="M1029 30c0,5 3,9 8,9 4,0 8,-4 8,-9 0,-5 -4,-9 -8,-9 -5,0 -8,4 -8,9z"/>
   <path class="fil1" d="M1000 30c0,5 4,9 8,9 5,0 8,-4 8,-9 0,-5 -3,-9 -8,-9 -4,0 -8,4 -8,9z"/>
   <path class="fil1" d="M972 30c0,5 4,9 8,9 4,0 8,-4 8,-9 0,-5 -4,-9 -8,-9 -4,0 -8,4 -8,9z"/>
   <path class="fil1" d="M943 30c0,5 4,9 8,9 5,0 8,-4 8,-9 0,-5 -3,-9 -8,-9 -4,0 -8,4 -8,9z"/>
   <path class="fil1" d="M915 30c0,5 4,9 8,9 4,0 8,-4 8,-9 0,-5 -4,-9 -8,-9 -4,0 -8,4 -8,9z"/>
   <path class="fil1" d="M887 30c0,5 3,9 8,9 4,0 8,-4 8,-9 0,-5 -4,-9 -8,-9 -5,0 -8,4 -8,9z"/>
   <path class="fil1" d="M858 30c0,5 4,9 8,9 5,0 8,-4 8,-9 0,-5 -3,-9 -8,-9 -4,0 -8,4 -8,9z"/>
   <path class="fil1" d="M830 30c0,5 3,9 8,9 4,0 8,-4 8,-9 0,-5 -4,-9 -8,-9 -5,0 -8,4 -8,9z"/>
   <path class="fil1" d="M801 30c0,5 4,9 8,9 5,0 8,-4 8,-9 0,-5 -3,-9 -8,-9 -4,0 -8,4 -8,9z"/>
   <path class="fil1" d="M773 30c0,5 4,9 8,9 4,0 8,-4 8,-9 0,-5 -4,-9 -8,-9 -4,0 -8,4 -8,9z"/>
   <path class="fil1" d="M745 30c0,5 3,9 7,9 5,0 8,-4 8,-9 0,-5 -3,-9 -8,-9 -4,0 -7,4 -7,9z"/>
   <path class="fil1" d="M716 30c0,5 4,9 8,9 4,0 8,-4 8,-9 0,-5 -4,-9 -8,-9 -4,0 -8,4 -8,9z"/>
   <path class="fil1" d="M688 30c0,5 3,9 8,9 4,0 8,-4 8,-9 0,-5 -4,-9 -8,-9 -5,0 -8,4 -8,9z"/>
   <path class="fil1" d="M659 30c0,5 4,9 8,9 5,0 8,-4 8,-9 0,-5 -3,-9 -8,-9 -4,0 -8,4 -8,9z"/>
   <path class="fil1" d="M631 30c0,5 4,9 8,9 4,0 8,-4 8,-9 0,-5 -4,-9 -8,-9 -4,0 -8,4 -8,9z"/>
   <path class="fil1" d="M602 30c0,5 4,9 8,9 5,0 8,-4 8,-9 0,-5 -3,-9 -8,-9 -4,0 -8,4 -8,9z"/>
   <path class="fil1" d="M574 30c0,5 4,9 8,9 4,0 8,-4 8,-9 0,-5 -4,-9 -8,-9 -4,0 -8,4 -8,9z"/>
   <path class="fil1" d="M546 30c0,5 3,9 8,9 4,0 7,-4 7,-9 0,-5 -3,-9 -7,-9 -5,0 -8,4 -8,9z"/>
   <path class="fil1" d="M496 30c0,5 3,9 8,9 4,0 8,-4 8,-9 0,-5 -4,-9 -8,-9 -5,0 -8,4 -8,9z"/>
   <path class="fil1" d="M467 30c0,5 4,9 8,9 4,0 8,-4 8,-9 0,-5 -4,-9 -8,-9 -4,0 -8,4 -8,9z"/>
   <path class="fil1" d="M439 30c0,5 3,9 8,9 4,0 8,-4 8,-9 0,-5 -4,-9 -8,-9 -5,0 -8,4 -8,9z"/>
   <path class="fil1" d="M410 30c0,5 4,9 8,9 5,0 8,-4 8,-9 0,-5 -3,-9 -8,-9 -4,0 -8,4 -8,9z"/>
   <path class="fil1" d="M382 30c0,5 3,9 8,9 4,0 8,-4 8,-9 0,-5 -4,-9 -8,-9 -5,0 -8,4 -8,9z"/>
   <path class="fil1" d="M354 30c0,5 3,9 8,9 4,0 7,-4 7,-9 0,-5 -3,-9 -7,-9 -5,0 -8,4 -8,9z"/>
   <path class="fil1" d="M325 30c0,5 4,9 8,9 4,0 8,-4 8,-9 0,-5 -4,-9 -8,-9 -4,0 -8,4 -8,9z"/>
   <path class="fil1" d="M297 30c0,5 3,9 8,9 4,0 8,-4 8,-9 0,-5 -4,-9 -8,-9 -5,0 -8,4 -8,9z"/>
   <path class="fil1" d="M268 30c0,5 4,9 8,9 5,0 8,-4 8,-9 0,-5 -3,-9 -8,-9 -4,0 -8,4 -8,9z"/>
   <path class="fil1" d="M240 30c0,5 3,9 8,9 4,0 8,-4 8,-9 0,-5 -4,-9 -8,-9 -5,0 -8,4 -8,9z"/>
   <path class="fil1" d="M212 30c0,5 3,9 7,9 5,0 8,-4 8,-9 0,-5 -3,-9 -8,-9 -4,0 -7,4 -7,9z"/>
   <path class="fil1" d="M183 30c0,5 4,9 8,9 4,0 8,-4 8,-9 0,-5 -4,-9 -8,-9 -4,0 -8,4 -8,9z"/>
   <path class="fil1" d="M155 30c0,5 3,9 8,9 4,0 8,-4 8,-9 0,-5 -4,-9 -8,-9 -5,0 -8,4 -8,9z"/>
   <path class="fil1" d="M126 30c0,5 4,9 8,9 4,0 8,-4 8,-9 0,-5 -4,-9 -8,-9 -4,0 -8,4 -8,9z"/>
   <path class="fil1" d="M98 30c0,5 3,9 8,9 4,0 8,-4 8,-9 0,-5 -4,-9 -8,-9 -5,0 -8,4 -8,9z"/>
   <path class="fil1" d="M69 30c0,5 4,9 8,9 5,0 8,-4 8,-9 0,-5 -3,-9 -8,-9 -4,0 -8,4 -8,9z"/>
   <path class="fil1" d="M41 30c0,5 3,9 8,9 4,0 8,-4 8,-9 0,-5 -4,-9 -8,-9 -5,0 -8,4 -8,9z"/>
   <path class="fil1" d="M13 30c0,5 3,9 7,9 5,0 8,-4 8,-9 0,-5 -3,-9 -8,-9 -4,0 -7,4 -7,9z"/>
   <path class="fil1" d="M1563 30c0,5 3,9 8,9 4,0 7,-4 7,-9 0,-5 -3,-9 -7,-9 -5,0 -8,4 -8,9z"/>
   <path class="fil1" d="M1534 30c0,5 4,9 8,9 4,0 8,-4 8,-9 0,-5 -4,-9 -8,-9 -4,0 -8,4 -8,9z"/>
   <path class="fil1" d="M1506 30c0,5 3,9 8,9 4,0 8,-4 8,-9 0,-5 -4,-9 -8,-9 -5,0 -8,4 -8,9z"/>
   <path class="fil1" d="M1477 30c0,5 4,9 8,9 5,0 8,-4 8,-9 0,-5 -3,-9 -8,-9 -4,0 -8,4 -8,9z"/>
   <path class="fil1" d="M1449 30c0,5 3,9 8,9 4,0 8,-4 8,-9 0,-5 -4,-9 -8,-9 -5,0 -8,4 -8,9z"/>
   <path class="fil1" d="M1421 30c0,5 3,9 7,9 5,0 8,-4 8,-9 0,-5 -3,-9 -8,-9 -4,0 -7,4 -7,9z"/>
   <path class="fil1" d="M1392 30c0,5 4,9 8,9 4,0 8,-4 8,-9 0,-5 -4,-9 -8,-9 -4,0 -8,4 -8,9z"/>
   <path class="fil1" d="M1364 30c0,5 3,9 8,9 4,0 8,-4 8,-9 0,-5 -4,-9 -8,-9 -5,0 -8,4 -8,9z"/>
   <path class="fil1" d="M1335 30c0,5 4,9 8,9 4,0 8,-4 8,-9 0,-5 -4,-9 -8,-9 -4,0 -8,4 -8,9z"/>
   <path class="fil1" d="M1307 30c0,5 3,9 8,9 4,0 8,-4 8,-9 0,-5 -4,-9 -8,-9 -5,0 -8,4 -8,9z"/>
   <path class="fil1" d="M1278 30c0,5 4,9 8,9 5,0 8,-4 8,-9 0,-5 -3,-9 -8,-9 -4,0 -8,4 -8,9z"/>
   <path class="fil1" d="M1250 30c0,5 4,9 8,9 4,0 8,-4 8,-9 0,-5 -4,-9 -8,-9 -4,0 -8,4 -8,9z"/>
   <path class="fil1" d="M1222 30c0,5 3,9 7,9 5,0 8,-4 8,-9 0,-5 -3,-9 -8,-9 -4,0 -7,4 -7,9z"/>
   <path class="fil1" d="M1193 30c0,5 4,9 8,9 4,0 8,-4 8,-9 0,-5 -4,-9 -8,-9 -4,0 -8,4 -8,9z"/>
   <path class="fil1" d="M1165 30c0,5 3,9 8,9 4,0 8,-4 8,-9 0,-5 -4,-9 -8,-9 -5,0 -8,4 -8,9z"/>
   <path class="fil1" d="M1136 30c0,5 4,9 8,9 5,0 8,-4 8,-9 0,-5 -3,-9 -8,-9 -4,0 -8,4 -8,9z"/>
   <path class="fil1" d="M1108 30c0,5 3,9 8,9 4,0 8,-4 8,-9 0,-5 -4,-9 -8,-9 -5,0 -8,4 -8,9z"/>
   <path class="fil1" d="M1079 30c0,5 4,9 8,9 5,0 8,-4 8,-9 0,-5 -3,-9 -8,-9 -4,0 -8,4 -8,9z"/>
   <path class="fil1" d="M1604 23c0,10 11,19 26,19 7,0 14,-2 19,-6 -7,-12 -18,-25 -29,-30 -10,2 -16,9 -16,17l0 0 0 0z"/>
  </g>
 </g>
</svg>
