<?xml version="1.0" encoding="UTF-8"?>
<!DOCTYPE svg PUBLIC "-//W3C//DTD SVG 1.1//EN" "http://www.w3.org/Graphics/SVG/1.1/DTD/svg11.dtd">
<!-- Creator: CorelDRAW X8 -->
<svg xmlns="http://www.w3.org/2000/svg" xml:space="preserve" width="26.4159mm" height="15.0865mm" version="1.1" style="shape-rendering:geometricPrecision; text-rendering:geometricPrecision; image-rendering:optimizeQuality; fill-rule:evenodd; clip-rule:evenodd"
viewBox="0 0 168 96"
 xmlns:xlink="http://www.w3.org/1999/xlink">
 <defs>
  <style type="text/css">
   <![CDATA[
    .fil4 {fill:#3C3C3C;fill-rule:nonzero}
    .fil3 {fill:#A2D1CD;fill-rule:nonzero}
    .fil2 {fill:#F39AEE;fill-rule:nonzero}
    .fil0 {fill:#F73AED;fill-rule:nonzero}
    .fil1 {fill:#FDD8FB;fill-rule:nonzero}
   ]]>
  </style>
 </defs>
 <g id="Слой_x0020_6">
  <metadata id="CorelCorpID_0Corel-Layer"/>
  <g id="_810149232">
   <path class="fil0" d="M166 72c-3,-3 -5,-3 -5,-3 0,0 3,-48 -9,-60 -17,-16 -89,-6 -89,-6l0 0c-2,0 -4,1 -6,1 -25,6 -51,36 -51,55 0,1 0,1 0,2 0,3 1,6 3,8 0,0 -3,1 -5,2 -3,2 -4,5 -4,9 0,5 16,3 16,3 2,-5 7,-9 14,-9 6,0 11,4 13,9l83 0c2,-5 7,-9 13,-9 6,0 11,4 13,9l13 0c0,0 6,-5 1,-11l0 0 0 0z"/>
   <path class="fil1" d="M71 29c0,19 -21,34 -47,34 -6,0 -12,-1 -18,-2 0,-1 0,-1 0,-2 0,-19 26,-49 51,-55 8,7 14,15 14,25l0 0 0 0z"/>
   <path class="fil2" d="M123 69l-28 0c-12,0 -22,-10 -22,-21l0 -19c0,-12 10,-21 22,-21l28 0c12,0 22,9 22,21l0 19c0,11 -10,21 -22,21zm-28 -59c-11,0 -20,9 -20,19l0 19c0,10 9,18 20,18l28 0c11,0 20,-8 20,-18l0 -19c0,-10 -9,-19 -20,-19l-28 0z"/>
   <path class="fil2" d="M91 39l-12 0c-1,0 -1,0 -1,-1 0,-1 0,-2 1,-2l12 0c1,0 2,1 2,2 0,1 -1,1 -2,1z"/>
   <path class="fil3" d="M38 86c0,4 -4,8 -9,8 -5,0 -9,-4 -9,-8 0,-5 4,-9 9,-9 5,0 9,4 9,9z"/>
   <path class="fil4" d="M29 79c-4,0 -7,3 -7,7 0,3 3,6 7,6 4,0 7,-3 7,-6 0,-4 -3,-7 -7,-7zm0 17c-6,0 -11,-5 -11,-10 0,-6 5,-11 11,-11 6,0 11,5 11,11 0,5 -5,10 -11,10z"/>
   <path class="fil3" d="M148 86c0,4 -4,8 -9,8 -5,0 -9,-4 -9,-8 0,-5 4,-9 9,-9 5,0 9,4 9,9z"/>
   <path class="fil4" d="M139 79c-4,0 -7,3 -7,7 0,3 3,6 7,6 4,0 7,-3 7,-6 0,-4 -3,-7 -7,-7zm0 17c-6,0 -11,-5 -11,-10 0,-6 5,-11 11,-11 6,0 11,5 11,11 0,5 -5,10 -11,10z"/>
  </g>
 </g>
</svg>
