<?xml version="1.0" encoding="UTF-8"?>
<!DOCTYPE svg PUBLIC "-//W3C//DTD SVG 1.1//EN" "http://www.w3.org/Graphics/SVG/1.1/DTD/svg11.dtd">
<!-- Creator: CorelDRAW X8 -->
<svg xmlns="http://www.w3.org/2000/svg" xml:space="preserve" width="26.4159mm" height="15.0865mm" version="1.1" style="shape-rendering:geometricPrecision; text-rendering:geometricPrecision; image-rendering:optimizeQuality; fill-rule:evenodd; clip-rule:evenodd"
viewBox="0 0 168 96"
 xmlns:xlink="http://www.w3.org/1999/xlink">
 <defs>
  <style type="text/css">
   <![CDATA[
    .fil4 {fill:#3C3C3C;fill-rule:nonzero}
    .fil3 {fill:#A2D1CD;fill-rule:nonzero}
    .fil2 {fill:#F39AEE;fill-rule:nonzero}
    .fil0 {fill:#F73AED;fill-rule:nonzero}
    .fil1 {fill:#FDD8FB;fill-rule:nonzero}
   ]]>
  </style>
 </defs>
 <g id="Слой_x0020_6">
  <metadata id="CorelCorpID_0Corel-Layer"/>
  <g id="_810134320">
   <path class="fil0" d="M2 72c3,-3 5,-3 5,-3 0,0 -3,-48 9,-60 17,-16 89,-6 89,-6l0 0c2,0 4,1 6,1 25,6 51,36 51,55 0,1 0,1 0,2 0,3 -1,6 -3,8 0,0 3,1 5,2 3,2 4,5 4,9 0,5 -16,3 -16,3 -2,-5 -7,-9 -14,-9 -6,0 -11,4 -13,9l-83 0c-1,-5 -7,-9 -13,-9 -6,0 -11,4 -13,9l-13 0c0,0 -6,-5 -1,-11l0 0 0 0z"/>
   <path class="fil1" d="M98 29c0,19 20,34 46,34 6,0 13,-1 18,-2 0,-1 0,-1 0,-2 0,-19 -26,-49 -51,-55 -8,7 -13,15 -13,25l0 0 0 0z"/>
   <path class="fil2" d="M45 69l28 0c12,0 22,-10 22,-21l0 -19c0,-12 -10,-21 -22,-21l-28 0c-12,0 -22,9 -22,21l0 19c0,11 10,21 22,21zm28 -59c11,0 20,9 20,19l0 19c0,10 -9,18 -20,18l-28 0c-11,0 -20,-8 -20,-18l0 -19c0,-10 9,-19 20,-19l28 0z"/>
   <path class="fil2" d="M77 39l12 0c1,0 1,0 1,-1 0,-1 0,-2 -1,-2l-12 0c-1,0 -2,1 -2,2 0,1 1,1 2,1z"/>
   <path class="fil3" d="M130 86c0,4 4,8 9,8 5,0 9,-4 9,-8 0,-5 -4,-9 -9,-9 -5,0 -9,4 -9,9z"/>
   <path class="fil4" d="M139 79c4,0 7,3 7,7 0,3 -3,6 -7,6 -4,0 -7,-3 -7,-6 0,-4 3,-7 7,-7zm0 17c6,0 11,-5 11,-10 0,-6 -5,-11 -11,-11 -6,0 -11,5 -11,11 0,5 5,10 11,10z"/>
   <path class="fil3" d="M20 86c0,4 4,8 9,8 5,0 9,-4 9,-8 0,-5 -4,-9 -9,-9 -5,0 -9,4 -9,9z"/>
   <path class="fil4" d="M29 79c4,0 8,3 8,7 0,3 -4,6 -8,6 -4,0 -7,-3 -7,-6 0,-4 3,-7 7,-7zm0 17c6,0 11,-5 11,-10 0,-6 -5,-11 -11,-11 -6,0 -11,5 -11,11 0,5 5,10 11,10z"/>
  </g>
 </g>
</svg>
