<?xml version="1.0" encoding="UTF-8"?>
<!DOCTYPE svg PUBLIC "-//W3C//DTD SVG 1.1//EN" "http://www.w3.org/Graphics/SVG/1.1/DTD/svg11.dtd">
<!-- Creator: CorelDRAW X8 -->
<svg xmlns="http://www.w3.org/2000/svg" xml:space="preserve" width="28.6723mm" height="16.38mm" version="1.1" style="shape-rendering:geometricPrecision; text-rendering:geometricPrecision; image-rendering:optimizeQuality; fill-rule:evenodd; clip-rule:evenodd"
viewBox="0 0 416 237"
 xmlns:xlink="http://www.w3.org/1999/xlink">
 <defs>
  <style type="text/css">
   <![CDATA[
    .fil0 {fill:#39B553;fill-rule:nonzero}
    .fil4 {fill:#3C3C3C;fill-rule:nonzero}
    .fil2 {fill:#99D4A6;fill-rule:nonzero}
    .fil3 {fill:#A2D1CD;fill-rule:nonzero}
    .fil1 {fill:#B0E1BA;fill-rule:nonzero}
   ]]>
  </style>
 </defs>
 <g id="Слой_x0020_6">
  <metadata id="CorelCorpID_0Corel-Layer"/>
  <g id="_810133392">
   <path class="fil0" d="M410 177c-7,-7 -13,-7 -13,-7 0,0 9,-119 -22,-148 -42,-40 -218,-14 -218,-14l0 0c-6,1 -11,1 -16,3 -62,13 -127,87 -127,136 0,1 1,2 1,3 0,8 2,15 6,20 0,0 -5,2 -12,6 -7,5 -9,12 -9,22 0,12 40,7 40,7 5,-13 18,-22 33,-22 16,0 29,9 33,22l205 0c4,-13 17,-22 33,-22 15,0 28,9 33,22l32 0c0,0 14,-11 1,-28l0 0 0 0z"/>
   <path class="fil1" d="M174 71c0,47 -51,86 -115,86 -15,0 -31,-2 -44,-7 0,-1 -1,-2 -1,-3 0,-49 65,-123 127,-136 20,15 33,37 33,60l0 0 0 0z"/>
   <path class="fil2" d="M234 170l71 0c30,0 54,-23 54,-51l0 -48c0,-28 -24,-51 -54,-51l-71 0c-30,0 -54,23 -54,51l0 48c0,28 24,51 54,51zm71 -145c27,0 48,21 48,46l0 48c0,25 -21,45 -48,45l-71 0c-27,0 -48,-20 -48,-45l0 -48c0,-25 21,-46 48,-46l71 0z"/>
   <path class="fil2" d="M196 98l30 0c2,0 4,-2 4,-4 0,-3 -2,-5 -4,-5l-30 0c-2,0 -4,2 -4,5 0,2 2,4 4,4z"/>
   <path class="fil3" d="M95 212c0,12 -10,21 -23,21 -12,0 -22,-9 -22,-21 0,-12 10,-21 22,-21 13,0 23,9 23,21z"/>
   <path class="fil4" d="M90 212c0,9 -8,17 -18,17 -9,0 -17,-8 -17,-17 0,-10 8,-17 17,-17 10,0 18,7 18,17zm9 0c0,-14 -12,-26 -27,-26 -14,0 -27,12 -27,26 0,14 13,25 27,25 15,0 27,-11 27,-25z"/>
   <path class="fil3" d="M365 212c0,12 -10,21 -22,21 -12,0 -23,-9 -23,-21 0,-12 11,-21 23,-21 12,0 22,9 22,21z"/>
   <path class="fil4" d="M361 212c0,9 -8,17 -18,17 -10,0 -18,-8 -18,-17 0,-10 8,-17 18,-17 10,0 18,7 18,17zm9 0c0,-14 -12,-26 -27,-26 -15,0 -27,12 -27,26 0,14 12,25 27,25 15,0 27,-11 27,-25z"/>
  </g>
 </g>
</svg>
