<?xml version="1.0" encoding="UTF-8"?>
<!DOCTYPE svg PUBLIC "-//W3C//DTD SVG 1.1//EN" "http://www.w3.org/Graphics/SVG/1.1/DTD/svg11.dtd">
<!-- Creator: CorelDRAW X8 -->
<svg xmlns="http://www.w3.org/2000/svg" xml:space="preserve" width="22.6201mm" height="6.5736mm" version="1.1" style="shape-rendering:geometricPrecision; text-rendering:geometricPrecision; image-rendering:optimizeQuality; fill-rule:evenodd; clip-rule:evenodd"
viewBox="0 0 65 19"
 xmlns:xlink="http://www.w3.org/1999/xlink">
 <defs>
  <style type="text/css">
   <![CDATA[
    .fil1 {fill:#2B1A15;fill-rule:nonzero}
    .fil9 {fill:#4B4646;fill-rule:nonzero}
    .fil13 {fill:#4C4030;fill-rule:nonzero}
    .fil7 {fill:#4F6767;fill-rule:nonzero}
    .fil11 {fill:#606365;fill-rule:nonzero}
    .fil10 {fill:#648487;fill-rule:nonzero}
    .fil14 {fill:#6A8074;fill-rule:nonzero}
    .fil6 {fill:#85815D;fill-rule:nonzero}
    .fil0 {fill:#AD94DA;fill-rule:nonzero}
    .fil4 {fill:#B06B3E;fill-rule:nonzero}
    .fil5 {fill:#B97A51;fill-rule:nonzero}
    .fil8 {fill:#C8916C;fill-rule:nonzero}
    .fil2 {fill:#EA8E50;fill-rule:nonzero}
    .fil12 {fill:#EBA061;fill-rule:nonzero}
    .fil3 {fill:#F7A46B;fill-rule:nonzero}
   ]]>
  </style>
 </defs>
 <g id="Слой_x0020_6">
  <metadata id="CorelCorpID_0Corel-Layer"/>
  <g id="_810141712">
   <polygon class="fil0" points="41,11 46,11 46,0 41,0 "/>
   <path class="fil1" d="M37 13l-26 0 0 0c-5,0 -8,1 -8,2 0,0 3,1 8,1l0 0 26 0c14,0 25,-1 25,-1 0,-1 -11,-2 -25,-2z"/>
   <path class="fil2" d="M56 6c0,0 0,1 0,1 -1,0 -1,0 -1,0 0,0 0,0 0,0 0,1 0,1 0,1 -1,1 -2,1 -3,2l0 0 0 0c0,0 1,0 1,0l0 0 0 0 0 0c0,1 0,2 1,2l0 0 0 1 0 0 0 0c0,0 0,1 0,1l0 0c0,0 0,1 0,1 0,0 -1,1 -1,1l0 0 0 0c0,1 0,1 -1,1 -1,1 -48,1 -48,0 -8,-1 -3,-6 11,-9 18,-12 34,-8 39,-3 1,0 1,0 1,0 0,0 0,1 0,1 0,0 0,0 0,0 1,0 1,0 1,0l0 0 0 0z"/>
   <path class="fil1" d="M37 1c-2,-1 -6,0 -11,2 -4,2 -7,4 -8,5l-1 0c10,0 14,1 18,1l2 -8z"/>
   <path class="fil3" d="M35 11l0 0c-1,1 -1,2 -2,3l0 0 0 0 0 0c0,0 0,0 -1,0l0 0 0 0c-2,1 -5,2 -8,2l0 0c0,0 0,0 -1,0l0 0 0 0 0 0c-1,0 -2,0 -2,0 -1,0 -1,0 -1,0l0 0 0 0 0 0c0,0 0,-1 -1,-1l0 0c0,-1 -1,-2 -1,-3 0,0 0,-1 -1,-1 0,-1 0,-1 0,-2 0,0 13,0 17,0l0 0c1,0 1,0 1,0 0,0 0,1 0,2l0 0 0 0z"/>
   <path class="fil4" d="M22 16c0,0 -1,0 -1,0l0 0c0,0 1,0 2,0 0,0 0,0 0,0l0 0 0 0 0 0 0 0 0 0c0,0 0,0 -1,0l0 0zm2 0l0 0 0 0c3,0 6,-1 8,-2l0 0c0,0 0,0 0,0 -2,1 -5,2 -8,2l0 0 0 0zm-4 0l0 0 0 0 0 0 0 0c0,0 0,-1 -1,-1l0 0 0 0 0 0c1,0 1,1 1,1l0 0 0 0 0 0zm13 -2l0 0 0 0 0 0 0 0c1,-1 1,-2 2,-3l0 0 0 0 0 0c-1,1 -1,2 -2,3l0 0 0 0 0 0 0 0z"/>
   <path class="fil5" d="M23 16c-1,0 -2,0 -2,0l0 0c-1,0 -1,0 -1,0l0 0 0 0 0 0c0,0 0,-1 -1,-1l0 0c1,0 1,0 1,0 4,0 11,-1 12,-2 1,-1 2,-3 2,-4l0 0 1 0c0,1 0,1 0,2l0 0 0 0c-1,1 -1,2 -2,3l0 0 0 0 0 0 0 0c0,0 0,0 -1,0l0 0c-2,1 -5,2 -8,2l0 0 0 0c0,0 0,0 -1,0l0 0 0 0 0 0c0,0 0,0 0,0l0 0 0 0z"/>
   <path class="fil1" d="M33 10c0,1 -1,1 -2,1 -2,0 -3,0 -3,-1 0,0 1,0 3,0 1,0 2,0 2,0z"/>
   <path class="fil1" d="M54 14l0 0c0,0 0,1 0,1 -1,0 -1,0 -1,-1 0,0 -2,-4 -2,-5 0,0 1,0 1,1l1 0 0 0 0 0 0 0c0,1 0,2 1,2l0 0 0 1 0 0 0 0c0,0 0,1 0,1l0 0z"/>
   <path class="fil6" d="M54 14c-1,-1 -2,-4 -2,-4 0,0 0,0 1,0l0 0 0 0 0 0c0,1 0,2 1,2l0 0 0 1 0 0 0 0c0,0 0,1 0,1l0 0 0 0z"/>
   <path class="fil1" d="M8 12c-1,1 -1,1 -2,1 0,1 -1,1 -1,1l0 0 0 0 0 0 0 0c-1,0 -1,0 -1,1l0 0 -1 0 0 0c0,0 0,0 0,0 -1,0 -1,0 -1,0 0,-1 1,-2 2,-2 1,-1 2,-1 4,-1l0 0z"/>
   <path class="fil7" d="M3 15c0,0 0,0 0,0l0 0 0 -2 0 0c0,0 0,0 0,0l0 0 0 0 0 0 0 0 0 0 0 0 0 0 0 0 0 0 0 0 0 0c0,0 0,1 0,1 0,0 0,1 0,1l0 0 0 0 0 0 0 0z"/>
   <path class="fil8" d="M3 15l0 0 1 0 0 0 0 0 0 0 -1 0zm1 -1c0,0 0,0 1,0l0 0 0 0c-1,0 -1,0 -1,0l0 0z"/>
   <path class="fil9" d="M3 15c0,0 0,-1 0,-1 0,0 0,-1 0,-1l0 0 0 0 0 0 0 0 0 0 0 0c1,0 1,0 2,1 0,0 0,0 0,0 0,0 0,0 0,0 -1,0 -1,0 -1,0 0,0 0,0 0,1l0 0 0 0 -1 0 0 0z"/>
   <path class="fil7" d="M5 14c0,0 0,0 0,0 0,0 0,0 0,0l0 0 0 0zm0 0c0,0 0,0 0,0 0,-1 0,-1 0,-1l0 0 0 0 0 0 0 0 0 0 0 0 0 0 0 0 0 0 0 0 0 0c0,0 0,0 0,1 0,0 0,0 0,0l0 0z"/>
   <path class="fil10" d="M5 14c0,0 0,0 0,0 0,0 0,0 0,0 0,0 0,0 0,0 0,0 0,0 0,0 0,0 0,0 0,0l0 0 0 0 0 0z"/>
   <path class="fil9" d="M5 14c0,0 0,0 0,0 0,0 0,0 0,0l0 0zm0 0c0,0 0,0 0,0 0,0 0,0 0,0 0,-1 0,-1 0,-1l0 0 0 0 0 0 0 0 0 0 0 0c0,0 1,0 1,0 0,1 -1,1 -1,1l0 0 0 0 0 0z"/>
   <path class="fil11" d="M5 14c0,0 0,0 0,0 0,0 0,0 0,0l0 0c0,0 0,0 0,0l0 0z"/>
   <path class="fil1" d="M38 16l-28 0 0 0c-5,0 -8,1 -8,1 0,1 3,2 8,2l0 0 28 0c15,0 27,-1 27,-2 0,0 -12,-1 -27,-1z"/>
   <path class="fil12" d="M0 15c0,0 0,-1 1,-2l2 0c-1,1 -1,1 -1,2 0,0 0,0 0,0l-2 0 0 0z"/>
   <path class="fil13" d="M2 15c0,0 0,0 0,0 0,-1 0,-1 1,-2l0 0c0,0 0,1 0,1 0,0 0,0 0,1l-1 0 0 0z"/>
   <path class="fil14" d="M3 15c0,-1 0,-1 0,-1 0,0 0,-1 0,-1l0 0 0 2 0 0 0 0z"/>
   <path class="fil1" d="M37 1c0,3 -1,3 -1,8 2,0 7,0 9,-2 3,-2 0,-6 -4,-6 -1,0 -4,0 -4,0l0 0z"/>
   <path class="fil1" d="M55 6l-3 0c0,0 0,0 0,-1 0,0 0,0 0,0l3 0c0,0 0,1 0,1l0 0z"/>
   <path class="fil1" d="M56 6l-4 0c0,0 0,0 0,0 0,0 0,0 0,0l3 0c1,0 1,0 1,0l0 0z"/>
   <path class="fil1" d="M56 7c-1,0 -1,0 -1,0l-3 0c0,0 0,0 0,0 0,0 0,0 0,0l4 0 0 0z"/>
   <path class="fil1" d="M55 7c0,1 0,1 0,1l-3 0c0,0 0,0 0,0 0,0 0,-1 0,-1l3 0 0 0z"/>
   <polygon class="fil1" points="38,12 40,12 40,11 38,11 "/>
   <polygon class="fil1" points="40,13 41,13 41,12 40,12 "/>
   <polygon class="fil1" points="43,13 44,13 44,12 43,12 "/>
   <polygon class="fil1" points="41,12 43,12 43,11 41,11 "/>
   <polygon class="fil1" points="44,12 45,12 45,11 44,11 "/>
   <polygon class="fil1" points="45,13 47,13 47,12 45,12 "/>
   <polygon class="fil1" points="47,12 48,12 48,11 47,11 "/>
  </g>
 </g>
</svg>
