<?xml version="1.0" encoding="UTF-8"?>
<!DOCTYPE svg PUBLIC "-//W3C//DTD SVG 1.1//EN" "http://www.w3.org/Graphics/SVG/1.1/DTD/svg11.dtd">
<!-- Creator: CorelDRAW X8 -->
<svg xmlns="http://www.w3.org/2000/svg" xml:space="preserve" width="46.1183mm" height="15.6393mm" version="1.1" style="shape-rendering:geometricPrecision; text-rendering:geometricPrecision; image-rendering:optimizeQuality; fill-rule:evenodd; clip-rule:evenodd"
viewBox="0 0 217 74"
 xmlns:xlink="http://www.w3.org/1999/xlink">
 <defs>
  <style type="text/css">
   <![CDATA[
    .fil0 {fill:#291D20;fill-rule:nonzero}
    .fil3 {fill:#332E38;fill-rule:nonzero}
    .fil2 {fill:#3B3B49;fill-rule:nonzero}
    .fil8 {fill:#524A4C;fill-rule:nonzero}
    .fil7 {fill:#5E5E67;fill-rule:nonzero}
    .fil6 {fill:#5F6B5E;fill-rule:nonzero}
    .fil10 {fill:#6D6769;fill-rule:nonzero}
    .fil9 {fill:#7A887B;fill-rule:nonzero}
    .fil4 {fill:#858E88;fill-rule:nonzero}
    .fil5 {fill:#888077;fill-rule:nonzero}
    .fil1 {fill:#C7E0D3;fill-rule:nonzero}
   ]]>
  </style>
 </defs>
 <g id="Слой_x0020_6">
  <metadata id="CorelCorpID_0Corel-Layer"/>
  <g id="_1064774112">
   <path class="fil0" d="M54 54c0,0 0,1 0,1l0 0c0,0 0,0 0,1l0 0c0,0 0,0 0,0 0,1 0,1 0,1l0 0c0,1 0,1 0,1 0,0 0,1 0,1l0 0c0,0 0,0 0,1 0,0 -1,1 -1,1 0,0 0,0 0,1l0 0c0,0 0,0 0,0 -1,1 -1,1 -1,1 0,0 0,1 0,1l0 0c0,0 0,0 0,0 -1,1 -1,1 -1,1 0,0 0,0 0,1l0 0c-4,5 -10,8 -16,8 -7,0 -13,-4 -17,-10 0,0 0,0 -1,-1l0 0c0,-1 0,-1 0,-1 0,0 0,0 0,-1l0 0c0,0 0,0 -1,0l0 -1 0 0c0,-1 0,-1 0,-2 0,0 0,0 0,-1 0,0 0,0 -1,0 0,-1 0,-1 0,-1 0,0 0,0 0,-1 0,0 0,0 0,0 0,0 0,-1 0,-1 0,-11 9,-20 20,-20 11,0 19,9 19,20l0 0z"/>
   <path class="fil0" d="M199 54c0,11 -8,20 -19,20 -11,0 -20,-9 -20,-20 0,-11 9,-20 20,-20 11,0 19,9 19,20z"/>
   <path class="fil1" d="M215 59l0 0 -1 0c0,1 -1,2 -2,2 -2,1 -8,3 -16,4 -7,1 -16,2 -27,1 0,0 -2,0 -5,0 -15,0 -65,1 -105,0 -3,0 -6,0 -8,0 -13,-1 -24,-1 -33,-2 -9,0 -15,-1 -17,-3 -3,-2 2,-22 6,-28 1,0 1,-1 2,-1 9,-6 39,-10 41,-9 4,-4 24,-16 29,-18 13,-5 26,-5 39,-5 27,2 57,14 65,17 6,2 13,4 19,7 4,1 7,3 10,6l0 0c1,1 1,2 2,3l0 0c0,0 0,0 0,0 2,3 2,6 3,9 0,0 0,0 0,0 0,1 0,1 0,1l0 0c0,1 0,1 0,1 0,1 0,3 0,4 0,5 0,8 -2,11l0 0 0 0z"/>
   <path class="fil2" d="M215 59l0 0 0 0 -1 0c0,1 -1,2 -2,2 -2,1 -8,3 -16,4 -7,1 -16,2 -27,1 0,0 -2,0 -5,0 -15,0 -65,1 -105,0 -3,0 -6,0 -8,0 -13,-1 -24,-1 -33,-2 -9,0 -15,-1 -17,-3 -3,-2 2,-22 6,-28 3,0 5,-1 9,-3 6,-2 22,-5 43,-5 53,-1 131,2 136,3 9,2 19,5 22,14 0,0 0,0 0,0 0,1 0,1 0,1l0 0c0,1 0,1 0,1 0,1 0,3 0,4 0,5 0,8 -2,11l0 0z"/>
   <path class="fil1" d="M199 54c0,4 -1,8 -3,11 -7,1 -16,2 -27,1 0,0 -2,0 -5,0 -2,-3 -4,-7 -4,-12 0,-11 9,-20 20,-20 11,0 19,9 19,20l0 0z"/>
   <path class="fil0" d="M140 7c-2,-1 -4,-1 -6,-2 -14,-3 -23,-4 -41,-1 -16,3 -28,14 -32,18l-2 3c44,0 61,0 78,0l3 -18 0 0 0 0z"/>
   <path class="fil1" d="M54 54c0,4 -1,8 -3,12 -13,-1 -24,-1 -33,-2 -2,-3 -3,-6 -3,-10 0,-11 9,-20 20,-20 11,0 19,9 19,20l0 0z"/>
   <path class="fil1" d="M134 36l0 0c-1,4 -4,9 -6,11 0,1 0,1 0,1l-1 0 0 0c0,1 -2,2 -3,2l0 1 0 0c-8,3 -23,7 -36,8 0,0 0,0 0,0 -1,0 -1,0 -2,0l-1 0 0 0 0 0c-4,0 -8,0 -11,-1 -1,0 -3,-1 -3,-1l0 0 0 0 0 0c-1,-1 -2,-2 -2,-2l-1 -1c-2,-3 -4,-8 -6,-12 -1,-3 -2,-5 -3,-8 0,-2 0,-3 0,-6 0,0 55,-1 74,0l0 0 1 0c1,0 2,0 3,0 0,1 -1,4 -3,8l0 0 0 0z"/>
   <path class="fil3" d="M82 59c-3,0 -6,0 -8,-1l0 0c2,1 5,1 8,1 1,0 2,0 3,0l0 0 0 0 0 0 0 0 0 0c-1,0 -2,0 -3,0l0 0zm-11 -2l0 0 0 0 0 0 -1 -1c0,0 -1,-1 -2,-2l0 0 0 0 1 1c0,0 1,1 2,2l0 0 0 0 0 0zm56 -9l0 0 0 0 1 0c0,0 0,0 0,-1 2,-2 5,-7 6,-11l0 0 0 0 0 0c-1,4 -4,9 -6,11 0,1 0,1 0,1l-1 0 0 0 0 0z"/>
   <path class="fil4" d="M82 59c-3,0 -6,0 -8,-1l0 0c-1,0 -2,-1 -3,-1l0 0 0 0 0 0c-1,-1 -2,-2 -2,-2l-1 -1c2,0 3,0 4,0 17,0 45,-6 52,-11 3,-2 7,-10 9,-15l0 0 4 0c0,1 -1,4 -3,8l0 0 0 0c-1,4 -4,9 -6,11 0,1 0,1 0,1l-1 0 0 0 0 0c0,1 -1,2 -3,3l0 0c-8,3 -23,7 -36,8 0,0 0,0 0,0l0 0c-1,0 -2,0 -3,0l0 0 0 0 0 0c-1,0 -2,0 -3,0l0 0z"/>
   <path class="fil0" d="M127 33c0,1 -4,1 -10,1 -5,0 -10,0 -10,-1 0,-1 5,-1 10,-1 6,0 10,0 10,1z"/>
   <path class="fil0" d="M30 31c-1,2 -4,4 -7,5 -2,1 -3,1 -4,2l0 0c0,0 -1,0 -1,0 0,0 0,0 0,1 -1,0 -1,0 -1,0 -1,1 -3,1 -4,2 0,0 0,0 0,0 -1,0 -1,0 -1,0 0,1 -1,1 -1,1 -1,0 -1,0 -2,1 -4,1 -4,0 -4,-1 -1,-6 4,-9 9,-10 5,-1 11,-1 16,-1l0 0 0 0z"/>
   <path class="fil0" d="M215 43c0,1 0,1 0,1 0,1 0,1 -2,0 -1,-1 -12,-10 -13,-12 3,0 7,0 10,1 0,0 1,1 1,1l0 0c3,2 5,5 4,9l0 0z"/>
   <path class="fil5" d="M215 44c-3,-2 -11,-9 -12,-11 1,0 1,0 2,0 2,0 4,1 6,1l0 0c3,1 4,4 4,8 0,1 0,1 0,1 0,1 0,1 0,1l0 0z"/>
   <path class="fil6" d="M11 42c0,-1 0,-2 0,-3 0,-3 0,-5 1,-5l0 0 0 0 0 0 0 0 0 0 0 0 0 0 0 0 0 0 0 0 0 0c-1,0 0,2 0,5 0,1 0,2 0,2l0 0c0,1 -1,1 -1,1l0 0z"/>
   <path class="fil7" d="M12 41l0 0c0,0 0,0 1,0 0,0 0,0 0,0 0,0 0,0 0,0 0,0 0,0 0,0 0,0 0,0 0,0 -1,0 -1,0 -1,0zm1 0c0,0 0,0 0,0 0,0 0,0 0,0zm0 0c0,0 0,0 0,0 0,0 0,0 0,0zm1 -1c0,0 0,0 0,0 0,0 0,0 0,0zm0 0c1,0 2,-1 3,-1l0 0c0,0 0,0 0,0 -1,0 -2,1 -3,1l0 0z"/>
   <path class="fil8" d="M12 41c0,0 0,-1 0,-2 0,-3 -1,-5 0,-5l0 0 0 0 0 0 0 0 0 0 0 0c1,0 3,1 5,2 0,0 0,1 0,1 0,0 0,1 0,2 -1,0 -2,1 -3,1 0,0 0,0 0,0 0,0 0,0 0,0 0,0 0,1 -1,1 0,0 0,0 0,0 0,0 0,0 0,0 0,0 0,0 0,0 0,0 0,0 0,0 0,0 0,0 0,0 0,0 0,0 0,0 -1,0 -1,0 -1,0l0 0z"/>
   <path class="fil6" d="M17 39c0,0 0,0 1,0l0 0 0 0c-1,0 -1,0 -1,0zm1 -2c-1,0 -1,0 -1,-1 0,-1 0,-3 1,-3l0 0 0 0 0 0 0 0 0 0 0 0 0 0 0 0 0 0 0 0 0 0c-1,0 0,2 0,4 0,0 0,0 0,0l0 0z"/>
   <path class="fil9" d="M17 39c0,-1 0,-2 0,-2 0,0 0,-1 0,-1 0,1 0,1 1,1 0,1 0,1 0,2 -1,0 -1,0 -1,0 0,0 0,0 0,0l0 0z"/>
   <path class="fil8" d="M18 39l0 0c0,-1 0,-1 0,-1 0,0 0,0 0,1zm0 -1c0,0 0,0 0,-1 0,0 0,0 0,0 0,-2 -1,-4 0,-4l0 0 0 0 0 0 0 0 0 0 0 0c1,0 4,1 5,3 -2,1 -3,1 -4,2l0 0c0,0 -1,0 -1,0l0 0 0 0z"/>
   <path class="fil10" d="M18 39c0,-1 0,-1 0,-2 0,1 0,1 0,1l0 0c0,0 0,0 0,1l0 0z"/>
  </g>
 </g>
</svg>
