<?xml version="1.0" encoding="UTF-8"?>
<!DOCTYPE svg PUBLIC "-//W3C//DTD SVG 1.1//EN" "http://www.w3.org/Graphics/SVG/1.1/DTD/svg11.dtd">
<!-- Creator: CorelDRAW X8 -->
<svg xmlns="http://www.w3.org/2000/svg" xml:space="preserve" width="46.1183mm" height="15.6393mm" version="1.1" style="shape-rendering:geometricPrecision; text-rendering:geometricPrecision; image-rendering:optimizeQuality; fill-rule:evenodd; clip-rule:evenodd"
viewBox="0 0 217 74"
 xmlns:xlink="http://www.w3.org/1999/xlink">
 <defs>
  <style type="text/css">
   <![CDATA[
    .fil0 {fill:#291D20;fill-rule:nonzero}
    .fil3 {fill:#332E38;fill-rule:nonzero}
    .fil2 {fill:#3B3B49;fill-rule:nonzero}
    .fil8 {fill:#524A4C;fill-rule:nonzero}
    .fil7 {fill:#5E5E67;fill-rule:nonzero}
    .fil6 {fill:#5F6B5E;fill-rule:nonzero}
    .fil10 {fill:#6D6769;fill-rule:nonzero}
    .fil9 {fill:#7A887B;fill-rule:nonzero}
    .fil4 {fill:#858E88;fill-rule:nonzero}
    .fil5 {fill:#888077;fill-rule:nonzero}
    .fil1 {fill:#C7E0D3;fill-rule:nonzero}
   ]]>
  </style>
 </defs>
 <g id="Слой_x0020_6">
  <metadata id="CorelCorpID_0Corel-Layer"/>
  <g id="_1064760928">
   <path class="fil0" d="M163 54c0,0 0,1 0,1l0 0c0,0 0,0 0,1l0 0c0,0 0,0 0,0 0,1 0,1 0,1l0 0c0,1 0,1 0,1 0,0 0,1 0,1l0 0c0,0 0,0 0,1 1,0 1,1 1,1 0,0 0,0 0,1l0 0c0,0 0,0 1,0 0,1 0,1 0,1 0,0 0,1 0,1l0 0c0,0 0,0 1,0 0,1 0,1 0,1 0,0 0,0 0,1l0 0c4,5 10,8 16,8 7,0 14,-4 17,-10 0,0 0,0 1,-1l0 0c0,-1 0,-1 0,-1 0,0 0,0 0,-1l0 0c0,0 1,0 1,0l0 -1 0 0c0,-1 0,-1 0,-2 0,0 0,0 0,-1 1,0 1,0 1,0 0,-1 0,-1 0,-1 0,0 0,0 0,-1 0,0 0,0 0,0 0,0 0,-1 0,-1 0,-11 -9,-20 -20,-20 -11,0 -19,9 -19,20l0 0z"/>
   <path class="fil0" d="M18 54c0,11 8,20 19,20 11,0 20,-9 20,-20 0,-11 -9,-20 -20,-20 -11,0 -19,9 -19,20z"/>
   <path class="fil1" d="M2 59l0 0 1 0c0,1 1,2 2,2 2,1 8,3 16,4 7,1 16,2 27,1 0,0 2,0 5,0 16,0 65,1 106,0 2,0 5,0 7,0 13,-1 24,-1 33,-2 9,0 15,-1 17,-3 3,-2 -2,-22 -6,-28 -1,0 -1,-1 -2,-1 -9,-6 -39,-10 -41,-9 -4,-4 -23,-16 -29,-18 -12,-5 -26,-5 -39,-5 -27,2 -57,14 -64,17 -7,2 -14,4 -20,7 -3,1 -7,3 -10,6l0 0c0,1 -1,2 -2,3l0 0c0,0 0,0 0,0 -2,3 -2,6 -3,9 0,0 0,0 0,0 0,1 0,1 0,1l0 0c0,1 0,1 0,1 0,1 0,3 0,4 0,5 0,8 2,11l0 0 0 0z"/>
   <path class="fil2" d="M2 59l0 0 1 0 0 0c0,1 1,2 2,2 2,1 8,3 16,4 7,1 16,2 27,1 0,0 2,0 5,0 16,0 65,1 106,0 2,0 5,0 7,0 13,-1 24,-1 33,-2 9,0 15,-1 17,-3 3,-2 -2,-22 -6,-28 -3,0 -5,-1 -9,-3 -6,-2 -22,-5 -42,-5 -54,-1 -132,2 -137,3 -9,2 -19,5 -22,14 0,0 0,0 0,0 0,1 0,1 0,1l0 0c0,1 0,1 0,1 0,1 0,3 0,4 0,5 0,8 2,11l0 0z"/>
   <path class="fil1" d="M18 54c0,4 1,8 3,11 7,1 16,2 27,1 0,0 2,0 5,0 2,-3 4,-7 4,-12 0,-11 -9,-20 -20,-20 -11,0 -19,9 -19,20l0 0z"/>
   <path class="fil0" d="M77 7c2,-1 4,-1 6,-2 15,-3 23,-4 41,-1 16,3 28,14 32,18l3 3c-45,0 -62,0 -79,0l-3 -18 0 0 0 0z"/>
   <path class="fil1" d="M163 54c0,4 1,8 3,12 13,-1 24,-1 33,-2 2,-3 3,-6 3,-10 0,-11 -9,-20 -20,-20 -11,0 -19,9 -19,20l0 0z"/>
   <path class="fil1" d="M83 36l0 0c1,4 4,9 6,11 0,1 0,1 0,1l1 0 0 0c1,1 2,2 3,2l0 1 0 0c8,3 23,7 36,8 0,0 0,0 0,0 1,0 2,0 2,0l1 0 0 0 0 0c4,0 8,0 11,-1 1,0 3,-1 3,-1l1 0 0 0 0 0c0,-1 1,-2 1,-2l1 -1c3,-3 4,-8 6,-12 1,-3 2,-5 3,-8 0,-2 1,-3 1,-6 0,0 -56,-1 -75,0l0 0 0 0c-2,0 -3,0 -3,0 -1,1 0,4 2,8l0 0 0 0z"/>
   <path class="fil3" d="M135 59c3,0 6,0 8,-1l0 0c-2,1 -5,1 -8,1 -1,0 -2,0 -3,0l0 0 0 0 0 0 0 0 0 0c1,0 2,0 3,0l0 0zm12 -2l0 0 0 0 0 0 0 -1c0,0 1,-1 2,-2l0 0 0 0 -1 1c0,0 -1,1 -1,2l0 0 0 0 0 0zm-57 -9l0 0 0 0 -1 0c0,0 0,0 0,-1 -2,-2 -5,-7 -6,-11l0 0 0 0 0 0c1,4 4,9 6,11 0,1 0,1 0,1l1 0 0 0 0 0z"/>
   <path class="fil4" d="M135 59c3,0 6,0 8,-1l0 0c1,0 3,-1 4,-1l0 0 0 0 0 0c0,-1 1,-2 1,-2l1 -1c-1,0 -3,0 -4,0 -17,0 -45,-6 -52,-11 -3,-2 -7,-10 -9,-15l0 0 -3 0c0,1 0,4 2,8l0 0 0 0c1,4 4,9 6,11 0,1 0,1 0,1l1 0 0 0 0 0c0,1 1,2 3,3l0 0c8,3 23,7 36,8 0,0 0,0 0,0l0 0c1,0 2,0 3,0l0 0 0 0 0 0c1,0 2,0 3,0l0 0z"/>
   <path class="fil0" d="M90 33c0,1 5,1 10,1 5,0 10,0 10,-1 0,-1 -5,-1 -10,-1 -5,0 -10,0 -10,1z"/>
   <path class="fil0" d="M187 31c1,2 4,4 7,5 2,1 3,1 4,2l0 0c1,0 1,0 1,0 0,0 0,0 1,1 0,0 0,0 0,0 1,1 3,1 4,2 0,0 0,0 1,0 0,0 0,0 0,0 1,1 1,1 1,1 1,0 1,0 2,1 4,1 4,0 4,-1 1,-6 -4,-9 -9,-10 -5,-1 -11,-1 -16,-1l0 0 0 0z"/>
   <path class="fil0" d="M2 43c0,1 0,1 0,1 0,1 1,1 2,0 1,-1 12,-10 13,-12 -3,0 -6,0 -9,1 -1,0 -2,1 -2,1l0 0c-3,2 -5,5 -4,9l0 0z"/>
   <path class="fil5" d="M2 44c3,-2 11,-9 12,-11 -1,0 -1,0 -2,0 -2,0 -4,1 -6,1l0 0c-2,1 -4,4 -4,8 0,1 0,1 0,1 0,1 0,1 0,1l0 0z"/>
   <path class="fil6" d="M206 42c0,-1 0,-2 0,-3 0,-3 0,-5 -1,-5l0 0 0 0 0 0 0 0 0 0 0 0 0 0 0 0 0 0 0 0 0 0c1,0 0,2 0,5 0,1 0,2 0,2l0 0c1,1 1,1 1,1l0 0z"/>
   <path class="fil7" d="M205 41l0 0c0,0 0,0 0,0 -1,0 -1,0 -1,0 0,0 0,0 0,0 0,0 0,0 0,0 0,0 0,0 1,0 0,0 0,0 0,0zm-1 0c0,0 0,0 0,0 0,0 0,0 0,0zm0 0c0,0 0,0 0,0 0,0 0,0 0,0zm-1 -1c0,0 0,0 0,0 0,0 0,0 0,0zm0 0c-1,0 -2,-1 -3,-1l0 0c0,0 0,0 0,0 1,0 2,1 3,1l0 0z"/>
   <path class="fil8" d="M205 41c0,0 0,-1 0,-2 0,-3 1,-5 0,-5l0 0 0 0 0 0 0 0 0 0 0 0c-1,0 -3,1 -5,2 0,0 0,1 0,1 0,0 0,1 0,2 1,0 2,1 3,1 0,0 0,0 0,0 0,0 0,0 0,0 0,0 1,1 1,1 0,0 0,0 0,0 0,0 0,0 0,0 0,0 0,0 0,0 0,0 0,0 0,0 0,0 0,0 0,0 0,0 0,0 1,0 0,0 0,0 0,0l0 0z"/>
   <path class="fil6" d="M200 39c0,0 0,0 0,0l0 0 0 0c0,0 0,0 0,0zm-1 -2c1,0 1,0 1,-1 0,-1 0,-3 0,-3l0 0 -1 0 0 0 0 0 0 0 0 0 0 0 0 0 0 0 1 0 0 0c0,0 -1,2 -1,4 0,0 0,0 0,0l0 0z"/>
   <path class="fil9" d="M200 39c0,-1 0,-2 0,-2 0,0 0,-1 0,-1 0,1 0,1 -1,1 0,1 0,1 1,2 0,0 0,0 0,0 0,0 0,0 0,0l0 0z"/>
   <path class="fil8" d="M200 39l0 0c-1,-1 -1,-1 -1,-1 0,0 0,0 1,1zm-1 -1c0,0 0,0 0,-1 0,0 0,0 0,0 0,-2 1,-4 1,-4l0 0 -1 0 0 0 0 0 0 0 0 0c0,0 -4,1 -5,3 2,1 3,1 4,2l0 0c1,0 1,0 1,0l0 0 0 0z"/>
   <path class="fil10" d="M200 39c-1,-1 -1,-1 -1,-2 0,1 0,1 0,1l0 0c0,0 0,0 1,1l0 0z"/>
  </g>
 </g>
</svg>
