<?xml version="1.0" encoding="UTF-8"?>
<!DOCTYPE svg PUBLIC "-//W3C//DTD SVG 1.1//EN" "http://www.w3.org/Graphics/SVG/1.1/DTD/svg11.dtd">
<!-- Creator: CorelDRAW X8 -->
<svg xmlns="http://www.w3.org/2000/svg" xml:space="preserve" width="22.8086mm" height="15.8972mm" version="1.1" style="shape-rendering:geometricPrecision; text-rendering:geometricPrecision; image-rendering:optimizeQuality; fill-rule:evenodd; clip-rule:evenodd"
viewBox="0 0 34 24"
 xmlns:xlink="http://www.w3.org/1999/xlink">
 <defs>
  <style type="text/css">
   <![CDATA[
    .fil3 {fill:#1A181D;fill-rule:nonzero}
    .fil0 {fill:#2C2C30;fill-rule:nonzero}
    .fil4 {fill:#343337;fill-rule:nonzero}
    .fil5 {fill:#4B4B4F;fill-rule:nonzero}
    .fil6 {fill:#6A6D77;fill-rule:nonzero}
    .fil1 {fill:#ADD8AD;fill-rule:nonzero}
    .fil2 {fill:#EA8E50;fill-rule:nonzero}
   ]]>
  </style>
 </defs>
 <g id="Слой_x0020_6">
  <metadata id="CorelCorpID_0Corel-Layer"/>
  <path class="fil0" d="M9 6c5,0 9,4 9,8 0,5 -4,9 -9,9 -4,0 -8,-4 -8,-9 0,-4 4,-8 8,-8zm0 18c6,0 10,-5 10,-10 0,-5 -4,-9 -10,-9 -5,0 -9,4 -9,9 0,5 4,10 9,10z"/>
  <path class="fil1" d="M9 6c5,0 8,4 8,8 0,5 -3,8 -8,8 -4,0 -8,-3 -8,-8 0,-4 4,-8 8,-8zm0 17c5,0 9,-4 9,-9 0,-4 -4,-8 -9,-8 -4,0 -8,4 -8,8 0,5 4,9 8,9z"/>
  <path class="fil2" d="M5 14c1,1 1,1 1,2 5,3 18,2 22,2 3,-1 6,-1 3,-3l0 0c0,0 -2,-1 -2,-1 0,0 -1,0 -1,0 -1,-1 -2,-2 -3,-3 -1,-1 -1,-2 -1,-2 0,-8 -4,-9 -8,-9 -1,0 -3,1 -4,2 0,0 -1,0 -1,1 -1,0 -2,1 -3,3 -2,2 -4,6 -3,8l0 0 0 0z"/>
  <path class="fil3" d="M24 7c0,2 0,5 -2,5 -2,0 -6,-3 -7,-4 -6,-6 7,-12 9,-1l0 0 0 0z"/>
  <path class="fil3" d="M11 3c0,2 1,4 1,5 4,5 14,7 19,7 0,0 -2,-1 -2,-1 0,0 -1,0 -1,0 0,0 -1,0 -1,0 -2,-1 -3,-1 -5,-1 -2,-1 -7,-3 -9,-6 0,-1 -1,-3 -1,-5 0,0 -1,0 -1,1z"/>
  <path class="fil4" d="M22 8c0,0 1,0 1,0 0,0 0,-1 -1,-2 0,-1 -1,-3 -2,-4l-1 0c0,0 0,0 0,0 -1,0 -2,0 -2,1 0,0 1,0 1,0 1,0 1,1 2,1 1,1 1,2 1,4 1,0 1,0 1,0l0 0z"/>
  <path class="fil0" d="M5 14c1,1 1,1 1,2 1,-1 2,-2 3,-4 1,-3 1,-6 0,-6 0,0 -1,0 -1,0 -2,2 -4,6 -3,8z"/>
  <path class="fil5" d="M23 18c0,3 2,6 5,6 4,0 6,-3 6,-6 0,-3 -2,-5 -6,-5 -3,0 -5,2 -5,5z"/>
  <path class="fil0" d="M24 18c0,3 2,5 4,5 3,0 5,-2 5,-5 0,-3 -2,-5 -5,-5 -2,0 -4,2 -4,5z"/>
  <path class="fil6" d="M25 18c0,2 2,4 3,4 2,0 4,-2 4,-4 0,-2 -2,-3 -4,-3 -1,0 -3,1 -3,3z"/>
  <path class="fil1" d="M28 13c3,0 5,3 5,5 0,3 -2,5 -5,5 -2,0 -4,-2 -4,-5 0,-2 2,-5 4,-5zm0 10c3,0 6,-2 6,-5 0,-3 -3,-5 -6,-5 -2,0 -5,2 -5,5 0,3 3,5 5,5z"/>
 </g>
</svg>
