<?xml version="1.0" encoding="UTF-8"?>
<!DOCTYPE svg PUBLIC "-//W3C//DTD SVG 1.1//EN" "http://www.w3.org/Graphics/SVG/1.1/DTD/svg11.dtd">
<!-- Creator: CorelDRAW X8 -->
<svg xmlns="http://www.w3.org/2000/svg" xml:space="preserve" width="188.44mm" height="8.8413mm" version="1.1" style="shape-rendering:geometricPrecision; text-rendering:geometricPrecision; image-rendering:optimizeQuality; fill-rule:evenodd; clip-rule:evenodd"
viewBox="0 0 12400 582"
 xmlns:xlink="http://www.w3.org/1999/xlink">
 <defs>
  <style type="text/css">
   <![CDATA[
    .fil9 {fill:#3F3352;fill-rule:nonzero}
    .fil2 {fill:#44414B;fill-rule:nonzero}
    .fil7 {fill:#54525B;fill-rule:nonzero}
    .fil0 {fill:#6D6791;fill-rule:nonzero}
    .fil4 {fill:#898791;fill-rule:nonzero}
    .fil12 {fill:#92D2D9;fill-rule:nonzero}
    .fil5 {fill:#A581CC;fill-rule:nonzero}
    .fil1 {fill:#A9A7D9;fill-rule:nonzero}
    .fil3 {fill:#AD94DA;fill-rule:nonzero}
    .fil6 {fill:#AFAAFF;fill-rule:nonzero}
    .fil8 {fill:#B3B1BC;fill-rule:nonzero}
    .fil10 {fill:#B3FBFA;fill-rule:nonzero}
    .fil11 {fill:#EFF492;fill-rule:nonzero}
   ]]>
  </style>
 </defs>
 <g id="Слой_x0020_7">
  <metadata id="CorelCorpID_0Corel-Layer"/>
  <g id="_1062695088">
   <polygon class="fil0" points="2526,413 2154,413 2154,234 2526,234 "/>
   <polygon class="fil0" points="2526,179 2154,179 2154,0 2526,0 "/>
   <polygon class="fil1" points="2684,464 2608,464 2608,80 2684,80 "/>
   <polygon class="fil1" points="2093,464 2018,464 2018,80 2093,80 "/>
   <polygon class="fil1" points="940,384 864,384 864,0 940,0 "/>
   <polygon class="fil1" points="1786,507 1710,507 1710,65 1786,65 "/>
   <polygon class="fil1" points="1195,507 1120,507 1120,65 1195,65 "/>
   <polygon class="fil1" points="1483,228 1407,228 1407,102 1483,102 "/>
   <polygon class="fil1" points="1373,228 1297,228 1297,102 1373,102 "/>
   <polygon class="fil0" points="1599,228 1523,228 1523,102 1599,102 "/>
   <polygon class="fil1" points="2380,155 2305,155 2305,28 2380,28 "/>
   <polygon class="fil0" points="2491,155 2415,155 2415,28 2491,28 "/>
   <polygon class="fil0" points="2265,155 2188,155 2188,28 2265,28 "/>
   <polygon class="fil1" points="2383,389 2307,389 2307,263 2383,263 "/>
   <polygon class="fil1" points="2494,389 2418,389 2418,263 2494,263 "/>
   <polygon class="fil1" points="2267,389 2192,389 2192,263 2267,263 "/>
   <polygon class="fil2" points="3141,140 2801,140 2801,83 3141,83 "/>
   <polygon class="fil2" points="3141,286 2801,286 2801,228 3141,228 "/>
   <polygon class="fil2" points="3141,432 2801,432 2801,374 3141,374 "/>
   <polygon class="fil2" points="3141,578 2801,578 2801,521 3141,521 "/>
   <polygon class="fil1" points="653,445 439,445 439,196 653,196 "/>
   <path class="fil3" d="M6778 223c0,74 2,145 3,216l2240 0 0 -216 -2243 0z"/>
   <polygon class="fil4" points="9021,439 7990,439 7990,223 9021,223 "/>
   <polygon class="fil5" points="9608,156 9107,156 9107,108 9608,108 "/>
   <polygon class="fil5" points="9608,461 9107,461 9107,413 9608,413 "/>
   <polygon class="fil5" points="6115,147 5614,147 5614,99 6115,99 "/>
   <polygon class="fil5" points="6115,454 5614,454 5614,405 6115,405 "/>
   <polygon class="fil6" points="11025,333 10917,333 10917,92 11025,92 "/>
   <polygon class="fil6" points="10799,333 10690,333 10690,92 10799,92 "/>
   <polygon class="fil6" points="10572,333 10463,333 10463,92 10572,92 "/>
   <polygon class="fil6" points="10346,333 10237,333 10237,92 10346,92 "/>
   <polygon class="fil7" points="10120,333 10010,333 10010,92 10120,92 "/>
   <polygon class="fil3" points="9901,333 9793,333 9793,92 9901,92 "/>
   <polygon class="fil8" points="11794,109 11315,109 11315,19 11794,19 "/>
   <polygon class="fil3" points="11794,322 11315,322 11315,232 11794,232 "/>
   <polygon class="fil8" points="11794,535 11315,535 11315,445 11794,445 "/>
   <polygon class="fil8" points="3934,416 3487,416 3487,353 3934,353 "/>
   <polygon class="fil8" points="3934,582 3487,582 3487,519 3934,519 "/>
   <path class="fil9" d="M4411 43l0 458 -4075 0c-131,0 -367,-3 -333,-129 8,-28 25,-65 47,-103 54,-89 140,-188 222,-226 22,-9 43,-15 64,-15 0,0 2516,-45 4075,15l0 0z"/>
   <path class="fil9" d="M8408 501l0 -459c-1560,-59 -2659,-40 -3872,-23 -18,0 -39,2 -61,6l0 476 3933 0 0 0z"/>
   <path class="fil10" d="M4697 225c0,38 -27,68 -60,68 -33,0 -60,-30 -60,-68 0,-38 27,-68 60,-68 33,0 60,30 60,68z"/>
   <path class="fil10" d="M4909 225c0,38 -26,68 -59,68 -33,0 -60,-30 -60,-68 0,-38 27,-68 60,-68 33,0 59,30 59,68z"/>
   <path class="fil11" d="M5123 225c0,38 -28,68 -60,68 -34,0 -60,-30 -60,-68 0,-38 26,-68 60,-68 32,0 60,30 60,68z"/>
   <path class="fil11" d="M5335 225c0,38 -27,68 -60,68 -32,0 -59,-30 -59,-68 0,-38 27,-68 59,-68 33,0 60,30 60,68z"/>
   <path class="fil10" d="M5547 225c0,38 -26,68 -59,68 -33,0 -60,-30 -60,-68 0,-38 27,-68 60,-68 33,0 59,30 59,68z"/>
   <path class="fil10" d="M5761 225c0,38 -27,68 -60,68 -33,0 -59,-30 -59,-68 0,-38 26,-68 59,-68 33,0 60,30 60,68z"/>
   <path class="fil11" d="M5973 225c0,38 -26,68 -59,68 -33,0 -60,-30 -60,-68 0,-38 27,-68 60,-68 33,0 59,30 59,68z"/>
   <path class="fil11" d="M6186 225c0,38 -26,68 -60,68 -32,0 -59,-30 -59,-68 0,-38 27,-68 59,-68 34,0 60,30 60,68z"/>
   <path class="fil11" d="M6399 225c0,38 -27,68 -60,68 -32,0 -59,-30 -59,-68 0,-38 27,-68 59,-68 33,0 60,30 60,68z"/>
   <path class="fil10" d="M6612 225c0,38 -27,68 -60,68 -33,0 -60,-30 -60,-68 0,-38 27,-68 60,-68 33,0 60,30 60,68z"/>
   <path class="fil11" d="M6825 225c0,38 -27,68 -60,68 -33,0 -59,-30 -59,-68 0,-38 26,-68 59,-68 33,0 60,30 60,68z"/>
   <path class="fil10" d="M7037 225c0,38 -26,68 -59,68 -33,0 -60,-30 -60,-68 0,-38 27,-68 60,-68 33,0 59,30 59,68z"/>
   <path class="fil11" d="M7250 225c0,38 -26,68 -59,68 -33,0 -60,-30 -60,-68 0,-38 27,-68 60,-68 33,0 59,30 59,68z"/>
   <path class="fil10" d="M7463 225c0,38 -27,68 -60,68 -33,0 -59,-30 -59,-68 0,-38 26,-68 59,-68 33,0 60,30 60,68z"/>
   <path class="fil11" d="M7676 225c0,38 -27,68 -60,68 -33,0 -59,-30 -59,-68 0,-38 26,-68 59,-68 33,0 60,30 60,68z"/>
   <path class="fil10" d="M7889 225c0,38 -27,68 -60,68 -33,0 -60,-30 -60,-68 0,-38 27,-68 60,-68 33,0 60,30 60,68z"/>
   <path class="fil11" d="M8101 225c0,38 -26,68 -59,68 -33,0 -60,-30 -60,-68 0,-38 27,-68 60,-68 33,0 59,30 59,68z"/>
   <path class="fil10" d="M8314 225c0,38 -27,68 -59,68 -34,0 -60,-30 -60,-68 0,-38 26,-68 60,-68 32,0 59,30 59,68z"/>
   <path class="fil10" d="M699 225c0,38 -27,68 -59,68 -33,0 -59,-30 -59,-68 0,-38 26,-68 59,-68 32,0 59,30 59,68z"/>
   <path class="fil10" d="M912 225c0,38 -27,68 -60,68 -33,0 -59,-30 -59,-68 0,-38 26,-68 59,-68 33,0 60,30 60,68z"/>
   <path class="fil11" d="M1125 225c0,38 -27,68 -59,68 -33,0 -61,-30 -61,-68 0,-38 28,-68 61,-68 32,0 59,30 59,68z"/>
   <path class="fil11" d="M1338 225c0,38 -27,68 -60,68 -33,0 -59,-30 -59,-68 0,-38 26,-68 59,-68 33,0 60,30 60,68z"/>
   <path class="fil10" d="M1550 225c0,38 -27,68 -59,68 -32,0 -60,-30 -60,-68 0,-38 28,-68 60,-68 32,0 59,30 59,68z"/>
   <path class="fil10" d="M1763 225c0,38 -26,68 -59,68 -33,0 -59,-30 -59,-68 0,-38 26,-68 59,-68 33,0 59,30 59,68z"/>
   <path class="fil11" d="M1976 225c0,38 -27,68 -59,68 -34,0 -60,-30 -60,-68 0,-38 26,-68 60,-68 32,0 59,30 59,68z"/>
   <path class="fil11" d="M2189 225c0,38 -26,68 -60,68 -32,0 -59,-30 -59,-68 0,-38 27,-68 59,-68 34,0 60,30 60,68z"/>
   <path class="fil11" d="M2402 225c0,38 -27,68 -60,68 -33,0 -59,-30 -59,-68 0,-38 26,-68 59,-68 33,0 60,30 60,68z"/>
   <path class="fil10" d="M2615 225c0,38 -28,68 -60,68 -33,0 -59,-30 -59,-68 0,-38 26,-68 59,-68 32,0 60,30 60,68z"/>
   <path class="fil11" d="M2827 225c0,38 -26,68 -59,68 -33,0 -59,-30 -59,-68 0,-38 26,-68 59,-68 33,0 59,30 59,68z"/>
   <path class="fil10" d="M3040 225c0,38 -27,68 -60,68 -32,0 -59,-30 -59,-68 0,-38 27,-68 59,-68 33,0 60,30 60,68z"/>
   <path class="fil11" d="M3253 225c0,38 -26,68 -59,68 -33,0 -60,-30 -60,-68 0,-38 27,-68 60,-68 33,0 59,30 59,68z"/>
   <path class="fil10" d="M3466 225c0,38 -27,68 -60,68 -33,0 -59,-30 -59,-68 0,-38 26,-68 59,-68 33,0 60,30 60,68z"/>
   <path class="fil11" d="M3679 225c0,38 -27,68 -59,68 -34,0 -60,-30 -60,-68 0,-38 26,-68 60,-68 32,0 59,30 59,68z"/>
   <path class="fil10" d="M3891 225c0,38 -26,68 -59,68 -33,0 -59,-30 -59,-68 0,-38 26,-68 59,-68 33,0 59,30 59,68z"/>
   <path class="fil11" d="M4104 225c0,38 -26,68 -60,68 -32,0 -59,-30 -59,-68 0,-38 27,-68 59,-68 34,0 60,30 60,68z"/>
   <path class="fil10" d="M4317 225c0,38 -27,68 -59,68 -33,0 -60,-30 -60,-68 0,-38 27,-68 60,-68 32,0 59,30 59,68z"/>
   <path class="fil9" d="M12400 501l0 -459c-1560,-59 -2659,-40 -3872,-23 -18,0 -38,2 -61,6l0 476 3933 0z"/>
   <path class="fil10" d="M8689 225c0,38 -27,68 -60,68 -33,0 -60,-30 -60,-68 0,-38 27,-68 60,-68 33,0 60,30 60,68z"/>
   <path class="fil10" d="M8901 225c0,38 -26,68 -60,68 -32,0 -59,-30 -59,-68 0,-38 27,-68 59,-68 34,0 60,30 60,68z"/>
   <path class="fil11" d="M9114 225c0,38 -27,68 -59,68 -33,0 -60,-30 -60,-68 0,-38 27,-68 60,-68 32,0 59,30 59,68z"/>
   <path class="fil11" d="M9327 225c0,38 -27,68 -60,68 -33,0 -59,-30 -59,-68 0,-38 26,-68 59,-68 33,0 60,30 60,68z"/>
   <path class="fil10" d="M9540 225c0,38 -27,68 -60,68 -33,0 -60,-30 -60,-68 0,-38 27,-68 60,-68 33,0 60,30 60,68z"/>
   <path class="fil10" d="M9752 225c0,38 -26,68 -59,68 -33,0 -60,-30 -60,-68 0,-38 27,-68 60,-68 33,0 59,30 59,68z"/>
   <path class="fil11" d="M9965 225c0,38 -27,68 -59,68 -33,0 -60,-30 -60,-68 0,-38 27,-68 60,-68 32,0 59,30 59,68z"/>
   <path class="fil11" d="M10178 225c0,38 -26,68 -59,68 -33,0 -60,-30 -60,-68 0,-38 27,-68 60,-68 33,0 59,30 59,68z"/>
   <path class="fil11" d="M10391 225c0,38 -27,68 -59,68 -34,0 -60,-30 -60,-68 0,-38 26,-68 60,-68 32,0 59,30 59,68z"/>
   <path class="fil10" d="M10604 225c0,38 -27,68 -60,68 -32,0 -59,-30 -59,-68 0,-38 27,-68 59,-68 33,0 60,30 60,68z"/>
   <path class="fil11" d="M10816 225c0,38 -26,68 -59,68 -33,0 -60,-30 -60,-68 0,-38 27,-68 60,-68 33,0 59,30 59,68z"/>
   <path class="fil10" d="M11030 225c0,38 -28,68 -60,68 -33,0 -59,-30 -59,-68 0,-38 26,-68 59,-68 32,0 60,30 60,68z"/>
   <path class="fil11" d="M11242 225c0,38 -26,68 -59,68 -33,0 -60,-30 -60,-68 0,-38 27,-68 60,-68 33,0 59,30 59,68z"/>
   <path class="fil10" d="M11455 225c0,38 -27,68 -60,68 -32,0 -59,-30 -59,-68 0,-38 27,-68 59,-68 33,0 60,30 60,68z"/>
   <path class="fil11" d="M11668 225c0,38 -27,68 -60,68 -33,0 -59,-30 -59,-68 0,-38 26,-68 59,-68 33,0 60,30 60,68z"/>
   <path class="fil10" d="M11881 225c0,38 -27,68 -60,68 -33,0 -60,-30 -60,-68 0,-38 27,-68 60,-68 33,0 60,30 60,68z"/>
   <path class="fil11" d="M12094 225c0,38 -27,68 -61,68 -32,0 -58,-30 -58,-68 0,-38 26,-68 58,-68 34,0 61,30 61,68z"/>
   <path class="fil10" d="M12306 225c0,38 -26,68 -59,68 -33,0 -60,-30 -60,-68 0,-38 27,-68 60,-68 33,0 59,30 59,68z"/>
   <path class="fil12" d="M393 174c0,79 -89,142 -197,142 -58,0 -110,-18 -146,-47 54,-89 140,-188 222,-226 70,22 121,72 121,131l0 0z"/>
  </g>
 </g>
</svg>
