<?xml version="1.0" encoding="UTF-8"?>
<!DOCTYPE svg PUBLIC "-//W3C//DTD SVG 1.1//EN" "http://www.w3.org/Graphics/SVG/1.1/DTD/svg11.dtd">
<!-- Creator: CorelDRAW X8 -->
<svg xmlns="http://www.w3.org/2000/svg" xml:space="preserve" width="188.44mm" height="8.8413mm" version="1.1" style="shape-rendering:geometricPrecision; text-rendering:geometricPrecision; image-rendering:optimizeQuality; fill-rule:evenodd; clip-rule:evenodd"
viewBox="0 0 12400 582"
 xmlns:xlink="http://www.w3.org/1999/xlink">
 <defs>
  <style type="text/css">
   <![CDATA[
    .fil9 {fill:#3F3352;fill-rule:nonzero}
    .fil2 {fill:#44414B;fill-rule:nonzero}
    .fil7 {fill:#54525B;fill-rule:nonzero}
    .fil0 {fill:#6D6791;fill-rule:nonzero}
    .fil4 {fill:#898791;fill-rule:nonzero}
    .fil12 {fill:#92D2D9;fill-rule:nonzero}
    .fil5 {fill:#A581CC;fill-rule:nonzero}
    .fil1 {fill:#A9A7D9;fill-rule:nonzero}
    .fil3 {fill:#AD94DA;fill-rule:nonzero}
    .fil6 {fill:#AFAAFF;fill-rule:nonzero}
    .fil8 {fill:#B3B1BC;fill-rule:nonzero}
    .fil10 {fill:#B3FBFA;fill-rule:nonzero}
    .fil11 {fill:#EFF492;fill-rule:nonzero}
   ]]>
  </style>
 </defs>
 <g id="Слой_x0020_7">
  <metadata id="CorelCorpID_0Corel-Layer"/>
  <g id="_1063209152">
   <polygon class="fil0" points="9874,413 10246,413 10246,234 9874,234 "/>
   <polygon class="fil0" points="9874,179 10246,179 10246,0 9874,0 "/>
   <polygon class="fil1" points="9716,464 9792,464 9792,80 9716,80 "/>
   <polygon class="fil1" points="10307,464 10382,464 10382,80 10307,80 "/>
   <polygon class="fil1" points="11460,384 11536,384 11536,0 11460,0 "/>
   <polygon class="fil1" points="10615,507 10691,507 10691,65 10615,65 "/>
   <polygon class="fil1" points="11205,507 11281,507 11281,65 11205,65 "/>
   <polygon class="fil1" points="10917,228 10993,228 10993,102 10917,102 "/>
   <polygon class="fil1" points="11027,228 11103,228 11103,102 11027,102 "/>
   <polygon class="fil0" points="10801,228 10877,228 10877,102 10801,102 "/>
   <polygon class="fil1" points="10020,155 10096,155 10096,28 10020,28 "/>
   <polygon class="fil0" points="9909,155 9986,155 9986,28 9909,28 "/>
   <polygon class="fil0" points="10136,155 10212,155 10212,28 10136,28 "/>
   <polygon class="fil1" points="10017,389 10093,389 10093,263 10017,263 "/>
   <polygon class="fil1" points="9907,389 9982,389 9982,263 9907,263 "/>
   <polygon class="fil1" points="10133,389 10209,389 10209,263 10133,263 "/>
   <polygon class="fil2" points="9259,140 9599,140 9599,83 9259,83 "/>
   <polygon class="fil2" points="9259,286 9599,286 9599,228 9259,228 "/>
   <polygon class="fil2" points="9259,432 9599,432 9599,374 9259,374 "/>
   <polygon class="fil2" points="9259,578 9599,578 9599,521 9259,521 "/>
   <polygon class="fil1" points="11747,445 11961,445 11961,196 11747,196 "/>
   <path class="fil3" d="M5622 223c0,74 -1,145 -3,216l-2240 0 0 -216 2243 0z"/>
   <polygon class="fil4" points="3379,439 4410,439 4410,223 3379,223 "/>
   <polygon class="fil5" points="2792,156 3293,156 3293,108 2792,108 "/>
   <polygon class="fil5" points="2792,461 3293,461 3293,413 2792,413 "/>
   <polygon class="fil5" points="6286,147 6786,147 6786,99 6286,99 "/>
   <polygon class="fil5" points="6286,454 6786,454 6786,405 6286,405 "/>
   <polygon class="fil6" points="1375,333 1484,333 1484,92 1375,92 "/>
   <polygon class="fil6" points="1601,333 1710,333 1710,92 1601,92 "/>
   <polygon class="fil6" points="1828,333 1937,333 1937,92 1828,92 "/>
   <polygon class="fil6" points="2054,333 2164,333 2164,92 2054,92 "/>
   <polygon class="fil7" points="2281,333 2390,333 2390,92 2281,92 "/>
   <polygon class="fil3" points="2499,333 2608,333 2608,92 2499,92 "/>
   <polygon class="fil8" points="606,109 1085,109 1085,19 606,19 "/>
   <polygon class="fil3" points="606,322 1085,322 1085,232 606,232 "/>
   <polygon class="fil8" points="606,535 1085,535 1085,445 606,445 "/>
   <polygon class="fil8" points="8466,416 8914,416 8914,353 8466,353 "/>
   <polygon class="fil8" points="8466,582 8914,582 8914,519 8466,519 "/>
   <path class="fil9" d="M7989 43l0 458 4076 0c130,0 366,-3 332,-129 -8,-28 -25,-65 -47,-103 -53,-89 -140,-188 -222,-226 -22,-9 -43,-15 -63,-15 0,0 -2516,-45 -4076,15l0 0z"/>
   <path class="fil9" d="M3992 501l0 -459c1560,-59 2659,-40 3872,-23 18,0 39,2 61,6l0 476 -3933 0 0 0z"/>
   <path class="fil10" d="M7703 225c0,38 28,68 60,68 33,0 60,-30 60,-68 0,-38 -27,-68 -60,-68 -32,0 -60,30 -60,68z"/>
   <path class="fil10" d="M7491 225c0,38 26,68 60,68 32,0 59,-30 59,-68 0,-38 -27,-68 -59,-68 -34,0 -60,30 -60,68z"/>
   <path class="fil11" d="M7278 225c0,38 27,68 60,68 33,0 59,-30 59,-68 0,-38 -26,-68 -59,-68 -33,0 -60,30 -60,68z"/>
   <path class="fil11" d="M7065 225c0,38 27,68 60,68 33,0 59,-30 59,-68 0,-38 -26,-68 -59,-68 -33,0 -60,30 -60,68z"/>
   <path class="fil10" d="M6853 225c0,38 26,68 59,68 33,0 60,-30 60,-68 0,-38 -27,-68 -60,-68 -33,0 -59,30 -59,68z"/>
   <path class="fil10" d="M6640 225c0,38 26,68 60,68 32,0 59,-30 59,-68 0,-38 -27,-68 -59,-68 -34,0 -60,30 -60,68z"/>
   <path class="fil11" d="M6427 225c0,38 26,68 59,68 33,0 60,-30 60,-68 0,-38 -27,-68 -60,-68 -33,0 -59,30 -59,68z"/>
   <path class="fil11" d="M6214 225c0,38 27,68 60,68 33,0 59,-30 59,-68 0,-38 -26,-68 -59,-68 -33,0 -60,30 -60,68z"/>
   <path class="fil11" d="M6001 225c0,38 27,68 60,68 33,0 59,-30 59,-68 0,-38 -26,-68 -59,-68 -33,0 -60,30 -60,68z"/>
   <path class="fil10" d="M5789 225c0,38 26,68 59,68 33,0 60,-30 60,-68 0,-38 -27,-68 -60,-68 -33,0 -59,30 -59,68z"/>
   <path class="fil11" d="M5576 225c0,38 26,68 59,68 33,0 60,-30 60,-68 0,-38 -27,-68 -60,-68 -33,0 -59,30 -59,68z"/>
   <path class="fil10" d="M5363 225c0,38 27,68 59,68 33,0 60,-30 60,-68 0,-38 -27,-68 -60,-68 -32,0 -59,30 -59,68z"/>
   <path class="fil11" d="M5150 225c0,38 27,68 59,68 34,0 60,-30 60,-68 0,-38 -26,-68 -60,-68 -32,0 -59,30 -59,68z"/>
   <path class="fil10" d="M4937 225c0,38 27,68 60,68 33,0 60,-30 60,-68 0,-38 -27,-68 -60,-68 -33,0 -60,30 -60,68z"/>
   <path class="fil11" d="M4725 225c0,38 26,68 59,68 33,0 60,-30 60,-68 0,-38 -27,-68 -60,-68 -33,0 -59,30 -59,68z"/>
   <path class="fil10" d="M4511 225c0,38 28,68 60,68 34,0 60,-30 60,-68 0,-38 -26,-68 -60,-68 -32,0 -60,30 -60,68z"/>
   <path class="fil11" d="M4299 225c0,38 26,68 59,68 33,0 60,-30 60,-68 0,-38 -27,-68 -60,-68 -33,0 -59,30 -59,68z"/>
   <path class="fil10" d="M4087 225c0,38 26,68 59,68 33,0 59,-30 59,-68 0,-38 -26,-68 -59,-68 -33,0 -59,30 -59,68z"/>
   <path class="fil10" d="M11701 225c0,38 27,68 59,68 33,0 59,-30 59,-68 0,-38 -26,-68 -59,-68 -32,0 -59,30 -59,68z"/>
   <path class="fil10" d="M11488 225c0,38 27,68 60,68 33,0 59,-30 59,-68 0,-38 -26,-68 -59,-68 -33,0 -60,30 -60,68z"/>
   <path class="fil11" d="M11275 225c0,38 27,68 60,68 32,0 60,-30 60,-68 0,-38 -28,-68 -60,-68 -33,0 -60,30 -60,68z"/>
   <path class="fil11" d="M11062 225c0,38 27,68 60,68 33,0 59,-30 59,-68 0,-38 -26,-68 -59,-68 -33,0 -60,30 -60,68z"/>
   <path class="fil10" d="M10850 225c0,38 27,68 59,68 33,0 60,-30 60,-68 0,-38 -27,-68 -60,-68 -32,0 -59,30 -59,68z"/>
   <path class="fil10" d="M10637 225c0,38 26,68 60,68 32,0 59,-30 59,-68 0,-38 -27,-68 -59,-68 -34,0 -60,30 -60,68z"/>
   <path class="fil11" d="M10424 225c0,38 27,68 60,68 33,0 59,-30 59,-68 0,-38 -26,-68 -59,-68 -33,0 -60,30 -60,68z"/>
   <path class="fil11" d="M10211 225c0,38 27,68 60,68 33,0 59,-30 59,-68 0,-38 -26,-68 -59,-68 -33,0 -60,30 -60,68z"/>
   <path class="fil11" d="M9998 225c0,38 27,68 60,68 33,0 59,-30 59,-68 0,-38 -26,-68 -59,-68 -33,0 -60,30 -60,68z"/>
   <path class="fil10" d="M9786 225c0,38 27,68 60,68 32,0 59,-30 59,-68 0,-38 -27,-68 -59,-68 -33,0 -60,30 -60,68z"/>
   <path class="fil11" d="M9573 225c0,38 27,68 59,68 33,0 60,-30 60,-68 0,-38 -27,-68 -60,-68 -32,0 -59,30 -59,68z"/>
   <path class="fil10" d="M9360 225c0,38 27,68 60,68 33,0 59,-30 59,-68 0,-38 -26,-68 -59,-68 -33,0 -60,30 -60,68z"/>
   <path class="fil11" d="M9147 225c0,38 27,68 59,68 34,0 61,-30 61,-68 0,-38 -27,-68 -61,-68 -32,0 -59,30 -59,68z"/>
   <path class="fil10" d="M8934 225c0,38 27,68 60,68 33,0 59,-30 59,-68 0,-38 -26,-68 -59,-68 -33,0 -60,30 -60,68z"/>
   <path class="fil11" d="M8722 225c0,38 27,68 59,68 33,0 60,-30 60,-68 0,-38 -27,-68 -60,-68 -32,0 -59,30 -59,68z"/>
   <path class="fil10" d="M8509 225c0,38 27,68 59,68 33,0 59,-30 59,-68 0,-38 -26,-68 -59,-68 -32,0 -59,30 -59,68z"/>
   <path class="fil11" d="M8296 225c0,38 27,68 60,68 33,0 59,-30 59,-68 0,-38 -26,-68 -59,-68 -33,0 -60,30 -60,68z"/>
   <path class="fil10" d="M8084 225c0,38 26,68 59,68 32,0 60,-30 60,-68 0,-38 -28,-68 -60,-68 -33,0 -59,30 -59,68z"/>
   <path class="fil9" d="M0 501l0 -459c1560,-59 2659,-40 3873,-23 17,0 38,2 61,6l0 476 -3934 0z"/>
   <path class="fil10" d="M3712 225c0,38 27,68 59,68 33,0 60,-30 60,-68 0,-38 -27,-68 -60,-68 -32,0 -59,30 -59,68z"/>
   <path class="fil10" d="M3499 225c0,38 27,68 60,68 33,0 59,-30 59,-68 0,-38 -26,-68 -59,-68 -33,0 -60,30 -60,68z"/>
   <path class="fil11" d="M3286 225c0,38 27,68 60,68 32,0 60,-30 60,-68 0,-38 -28,-68 -60,-68 -33,0 -60,30 -60,68z"/>
   <path class="fil11" d="M3074 225c0,38 26,68 59,68 33,0 59,-30 59,-68 0,-38 -26,-68 -59,-68 -33,0 -59,30 -59,68z"/>
   <path class="fil10" d="M2861 225c0,38 27,68 59,68 34,0 60,-30 60,-68 0,-38 -26,-68 -60,-68 -32,0 -59,30 -59,68z"/>
   <path class="fil10" d="M2648 225c0,38 26,68 59,68 33,0 60,-30 60,-68 0,-38 -27,-68 -60,-68 -33,0 -59,30 -59,68z"/>
   <path class="fil11" d="M2435 225c0,38 27,68 60,68 33,0 59,-30 59,-68 0,-38 -26,-68 -59,-68 -33,0 -60,30 -60,68z"/>
   <path class="fil11" d="M2222 225c0,38 26,68 60,68 32,0 59,-30 59,-68 0,-38 -27,-68 -59,-68 -34,0 -60,30 -60,68z"/>
   <path class="fil11" d="M2010 225c0,38 26,68 59,68 33,0 59,-30 59,-68 0,-38 -26,-68 -59,-68 -33,0 -59,30 -59,68z"/>
   <path class="fil10" d="M1796 225c0,38 28,68 60,68 33,0 59,-30 59,-68 0,-38 -26,-68 -59,-68 -32,0 -60,30 -60,68z"/>
   <path class="fil11" d="M1584 225c0,38 26,68 59,68 33,0 60,-30 60,-68 0,-38 -27,-68 -60,-68 -33,0 -59,30 -59,68z"/>
   <path class="fil10" d="M1371 225c0,38 27,68 60,68 32,0 59,-30 59,-68 0,-38 -27,-68 -59,-68 -33,0 -60,30 -60,68z"/>
   <path class="fil11" d="M1158 225c0,38 27,68 59,68 33,0 60,-30 60,-68 0,-38 -27,-68 -60,-68 -32,0 -59,30 -59,68z"/>
   <path class="fil10" d="M945 225c0,38 27,68 60,68 33,0 59,-30 59,-68 0,-38 -26,-68 -59,-68 -33,0 -60,30 -60,68z"/>
   <path class="fil11" d="M732 225c0,38 27,68 61,68 32,0 59,-30 59,-68 0,-38 -27,-68 -59,-68 -34,0 -61,30 -61,68z"/>
   <path class="fil10" d="M520 225c0,38 26,68 59,68 33,0 60,-30 60,-68 0,-38 -27,-68 -60,-68 -33,0 -59,30 -59,68z"/>
   <path class="fil11" d="M307 225c0,38 27,68 60,68 32,0 59,-30 59,-68 0,-38 -27,-68 -59,-68 -33,0 -60,30 -60,68z"/>
   <path class="fil10" d="M94 225c0,38 27,68 59,68 33,0 60,-30 60,-68 0,-38 -27,-68 -60,-68 -32,0 -59,30 -59,68z"/>
   <path class="fil12" d="M12008 174c0,79 88,142 196,142 58,0 110,-18 146,-47 -53,-89 -140,-188 -222,-226 -70,22 -120,72 -120,131l0 0z"/>
  </g>
 </g>
</svg>
