<?xml version="1.0" encoding="UTF-8"?>
<!DOCTYPE svg PUBLIC "-//W3C//DTD SVG 1.1//EN" "http://www.w3.org/Graphics/SVG/1.1/DTD/svg11.dtd">
<!-- Creator: CorelDRAW X8 -->
<svg xmlns="http://www.w3.org/2000/svg" xml:space="preserve" width="38.0627mm" height="15.8884mm" version="1.1" style="shape-rendering:geometricPrecision; text-rendering:geometricPrecision; image-rendering:optimizeQuality; fill-rule:evenodd; clip-rule:evenodd"
viewBox="0 0 356 148"
 xmlns:xlink="http://www.w3.org/1999/xlink">
 <defs>
  <style type="text/css">
   <![CDATA[
    .fil3 {fill:#10333A;fill-rule:nonzero}
    .fil4 {fill:#1D333A;fill-rule:nonzero}
    .fil10 {fill:#292530;fill-rule:nonzero}
    .fil5 {fill:#37353C;fill-rule:nonzero}
    .fil9 {fill:#46404F;fill-rule:nonzero}
    .fil8 {fill:#544476;fill-rule:nonzero}
    .fil7 {fill:#5D737F;fill-rule:nonzero}
    .fil11 {fill:#635A77;fill-rule:nonzero}
    .fil6 {fill:#64618E;fill-rule:nonzero}
    .fil12 {fill:#8FD8D1;fill-rule:nonzero}
    .fil2 {fill:#A1CFE2;fill-rule:nonzero}
    .fil0 {fill:#A581CC;fill-rule:nonzero}
    .fil1 {fill:url(#id0)}
   ]]>
  </style>
  <linearGradient id="id0" gradientUnits="userSpaceOnUse" x1="1402.21" y1="-3027.9" x2="1407.54" y2="2009.42">
   <stop offset="0" style="stop-opacity:1; stop-color:#898C9C"/>
   <stop offset="1" style="stop-opacity:1; stop-color:#BBAA91"/>
  </linearGradient>
 </defs>
 <g id="Слой_x0020_7">
  <metadata id="CorelCorpID_0Corel-Layer"/>
  <g id="_1063206656">
   <polygon class="fil0" points="133,86 62,86 62,79 133,79 "/>
   <path class="fil1" d="M0 108l60 0c-1,-1 -2,-1 -2,-2l-58 0 0 2z"/>
   <path class="fil2" d="M334 90c-1,2 -3,3 -6,5 -1,1 -2,2 -4,2 -32,17 -97,16 -155,15 -25,-1 -49,-1 -68,0 -73,4 -58,-42 -20,-45 22,-2 54,-9 54,-13 1,-46 50,-56 86,-54 15,1 30,5 42,10 5,2 10,4 14,7 6,3 16,10 26,19 3,2 6,4 8,7 18,16 33,35 23,47l0 0 0 0z"/>
   <path class="fil3" d="M335 78c-2,2 -4,4 -6,5 -2,1 -3,2 -4,3 -32,17 -98,16 -156,14 -26,0 -50,-1 -68,0 -31,2 -46,-5 -51,-14 -6,13 6,30 51,27 18,-1 42,0 68,0 58,2 124,3 156,-14 1,-1 2,-2 4,-2 2,-2 4,-4 6,-6 3,-4 3,-9 1,-15 0,1 -1,1 -1,2z"/>
   <path class="fil4" d="M141 42c-4,15 -6,36 15,35 23,-1 70,-21 81,-28 59,-36 -75,-76 -96,-7l0 0 0 0z"/>
   <path class="fil5" d="M274 15c-1,-1 -3,-1 -4,-2l0 0c1,1 3,1 4,2z"/>
   <path class="fil6" d="M270 13l0 0c-2,-1 -5,-2 -7,-3 0,0 0,0 0,0 0,0 0,0 0,0 2,1 5,2 7,3z"/>
   <path class="fil7" d="M66 93c52,0 161,-9 194,-41 7,-6 16,-23 17,-35 -1,-1 -2,-2 -3,-2 -1,-1 -3,-1 -4,-2 -2,-1 -5,-2 -7,-3 0,0 0,0 0,0 -1,12 -5,27 -11,34 -19,21 -71,33 -92,37 -18,2 -35,2 -53,3 -1,1 -6,1 -11,1 -4,1 -9,2 -14,3 0,0 -14,3 -19,5 1,0 2,0 3,0l0 0z"/>
   <path class="fil8" d="M156 53c4,0 7,-4 9,-6 6,-7 9,-16 20,-22 4,-2 9,-3 14,-5 4,-1 11,-1 12,-4 2,-5 -13,-6 -19,-6 -1,0 -1,0 -2,0l-7 2c-13,5 -25,17 -29,26 -1,3 -4,9 -2,12 1,2 3,3 4,3z"/>
   <path class="fil3" d="M334 90c-1,2 -3,3 -6,5 -5,-5 -10,-12 -14,-22 -4,-12 -5,-23 -3,-30 18,16 33,35 23,47l0 0 0 0z"/>
   <path class="fil9" d="M110 114c0,19 -16,34 -35,34 -19,0 -35,-15 -35,-34 0,-19 16,-35 35,-35 19,0 35,16 35,35z"/>
   <path class="fil10" d="M106 114c0,17 -14,30 -31,30 -17,0 -31,-13 -31,-30 0,-17 14,-31 31,-31 17,0 31,14 31,31z"/>
   <path class="fil11" d="M97 114c0,12 -10,22 -22,22 -12,0 -22,-10 -22,-22 0,-12 10,-22 22,-22 12,0 22,10 22,22z"/>
   <path class="fil12" d="M105 114c0,16 -14,29 -30,29 -16,0 -29,-13 -29,-29 0,-17 13,-30 29,-30 16,0 30,13 30,30zm2 0c0,-18 -14,-32 -32,-32 -18,0 -32,14 -32,32 0,18 14,32 32,32 18,0 32,-14 32,-32z"/>
   <path class="fil9" d="M356 114c0,19 -16,34 -35,34 -19,0 -35,-15 -35,-34 0,-19 16,-35 35,-35 19,0 35,16 35,35z"/>
   <path class="fil10" d="M352 114c0,17 -14,30 -31,30 -17,0 -31,-13 -31,-30 0,-17 14,-31 31,-31 17,0 31,14 31,31z"/>
   <path class="fil11" d="M343 114c0,12 -10,22 -22,22 -12,0 -22,-10 -22,-22 0,-12 10,-22 22,-22 12,0 22,10 22,22z"/>
   <path class="fil12" d="M350 114c0,16 -13,29 -29,29 -16,0 -30,-13 -30,-29 0,-17 14,-30 30,-30 16,0 29,13 29,30zm3 0c0,-18 -15,-32 -32,-32 -18,0 -32,14 -32,32 0,18 14,32 32,32 17,0 32,-14 32,-32z"/>
  </g>
 </g>
</svg>
