<?xml version="1.0" encoding="UTF-8"?>
<!DOCTYPE svg PUBLIC "-//W3C//DTD SVG 1.1//EN" "http://www.w3.org/Graphics/SVG/1.1/DTD/svg11.dtd">
<!-- Creator: CorelDRAW X8 -->
<svg xmlns="http://www.w3.org/2000/svg" xml:space="preserve" width="38.0627mm" height="15.8884mm" version="1.1" style="shape-rendering:geometricPrecision; text-rendering:geometricPrecision; image-rendering:optimizeQuality; fill-rule:evenodd; clip-rule:evenodd"
viewBox="0 0 356 148"
 xmlns:xlink="http://www.w3.org/1999/xlink">
 <defs>
  <style type="text/css">
   <![CDATA[
    .fil3 {fill:#10333A;fill-rule:nonzero}
    .fil4 {fill:#1D333A;fill-rule:nonzero}
    .fil10 {fill:#292530;fill-rule:nonzero}
    .fil5 {fill:#37353C;fill-rule:nonzero}
    .fil9 {fill:#46404F;fill-rule:nonzero}
    .fil8 {fill:#544476;fill-rule:nonzero}
    .fil7 {fill:#5D737F;fill-rule:nonzero}
    .fil11 {fill:#635A77;fill-rule:nonzero}
    .fil6 {fill:#64618E;fill-rule:nonzero}
    .fil12 {fill:#8FD8D1;fill-rule:nonzero}
    .fil2 {fill:#A1CFE2;fill-rule:nonzero}
    .fil0 {fill:#A581CC;fill-rule:nonzero}
    .fil1 {fill:url(#id0)}
   ]]>
  </style>
  <linearGradient id="id0" gradientUnits="userSpaceOnUse" x1="1697.68" y1="-3027.9" x2="1703" y2="2009.41">
   <stop offset="0" style="stop-opacity:1; stop-color:#898C9C"/>
   <stop offset="1" style="stop-opacity:1; stop-color:#BBAA91"/>
  </linearGradient>
 </defs>
 <g id="Слой_x0020_7">
  <metadata id="CorelCorpID_0Corel-Layer"/>
  <g id="_1063207712">
   <polygon class="fil0" points="222,86 293,86 293,79 222,79 "/>
   <path class="fil1" d="M356 108l-61 0c1,-1 2,-1 3,-2l58 0 0 2z"/>
   <path class="fil2" d="M21 90c2,2 4,3 6,5 2,1 3,2 4,2 32,17 97,16 155,15 26,-1 49,-1 68,0 73,4 59,-42 20,-45 -21,-2 -54,-9 -54,-13 -1,-46 -49,-56 -85,-54 -16,1 -30,5 -43,10 -5,2 -9,4 -14,7 -5,3 -15,10 -25,19 -3,2 -6,4 -9,7 -17,16 -32,35 -23,47l0 0 0 0z"/>
   <path class="fil3" d="M21 78c1,2 3,4 6,5 1,1 2,2 4,3 32,17 98,16 155,14 26,0 50,-1 69,0 31,2 46,-5 50,-14 7,13 -5,30 -50,27 -19,-1 -43,0 -69,0 -57,2 -123,3 -155,-14 -2,-1 -3,-2 -4,-2 -3,-2 -5,-4 -6,-6 -4,-4 -4,-9 -2,-15 1,1 1,1 2,2z"/>
   <path class="fil4" d="M214 42c5,15 6,36 -14,35 -24,-1 -70,-21 -81,-28 -59,-36 74,-76 95,-7l0 0 0 0z"/>
   <path class="fil5" d="M82 15c1,-1 2,-1 3,-2l0 0c-1,1 -2,1 -3,2z"/>
   <path class="fil6" d="M85 13l0 0c3,-1 5,-2 8,-3 0,0 0,0 0,0 -1,0 -1,0 -1,0 -2,1 -4,2 -7,3z"/>
   <path class="fil7" d="M290 93c-52,0 -161,-9 -195,-41 -6,-6 -16,-23 -17,-35 1,-1 3,-2 4,-2 1,-1 2,-1 3,-2 3,-1 5,-2 7,-3 0,0 0,0 1,0 1,12 4,27 11,34 19,21 71,33 92,37 17,2 34,2 52,3 2,1 6,1 12,1 4,1 8,2 14,3 0,0 14,3 18,5 0,0 -1,0 -2,0l0 0z"/>
   <path class="fil8" d="M199 53c-3,0 -7,-4 -8,-6 -7,-7 -9,-16 -20,-22 -5,-2 -9,-3 -15,-5 -4,-1 -11,-1 -12,-4 -1,-5 13,-6 20,-6 0,0 1,0 1,0l8 2c13,5 24,17 28,26 2,3 4,9 2,12 -1,2 -2,3 -4,3z"/>
   <path class="fil3" d="M21 90c2,2 4,3 6,5 5,-5 11,-12 14,-22 5,-12 5,-23 3,-30 -17,16 -32,35 -23,47l0 0 0 0z"/>
   <path class="fil9" d="M246 114c0,19 15,34 34,34 20,0 35,-15 35,-34 0,-19 -15,-35 -35,-35 -19,0 -34,16 -34,35z"/>
   <path class="fil10" d="M249 114c0,17 14,30 31,30 17,0 31,-13 31,-30 0,-17 -14,-31 -31,-31 -17,0 -31,14 -31,31z"/>
   <path class="fil11" d="M258 114c0,12 10,22 22,22 12,0 22,-10 22,-22 0,-12 -10,-22 -22,-22 -12,0 -22,10 -22,22z"/>
   <path class="fil12" d="M251 114c0,16 13,29 29,29 17,0 30,-13 30,-29 0,-17 -13,-30 -30,-30 -16,0 -29,13 -29,30zm-3 0c0,-18 15,-32 32,-32 18,0 33,14 33,32 0,18 -15,32 -33,32 -17,0 -32,-14 -32,-32z"/>
   <path class="fil9" d="M0 114c0,19 16,34 35,34 19,0 34,-15 34,-34 0,-19 -15,-35 -34,-35 -19,0 -35,16 -35,35z"/>
   <path class="fil10" d="M4 114c0,17 14,30 31,30 17,0 31,-13 31,-30 0,-17 -14,-31 -31,-31 -17,0 -31,14 -31,31z"/>
   <path class="fil11" d="M13 114c0,12 10,22 22,22 12,0 22,-10 22,-22 0,-12 -10,-22 -22,-22 -12,0 -22,10 -22,22z"/>
   <path class="fil12" d="M5 114c0,16 13,29 30,29 16,0 29,-13 29,-29 0,-17 -13,-30 -29,-30 -17,0 -30,13 -30,30zm-2 0c0,-18 14,-32 32,-32 18,0 32,14 32,32 0,18 -14,32 -32,32 -18,0 -32,-14 -32,-32z"/>
  </g>
 </g>
</svg>
