<?xml version="1.0" encoding="UTF-8"?>
<!DOCTYPE svg PUBLIC "-//W3C//DTD SVG 1.1//EN" "http://www.w3.org/Graphics/SVG/1.1/DTD/svg11.dtd">
<!-- Creator: CorelDRAW X8 -->
<svg xmlns="http://www.w3.org/2000/svg" xml:space="preserve" width="24.1548mm" height="7.6793mm" version="1.1" style="shape-rendering:geometricPrecision; text-rendering:geometricPrecision; image-rendering:optimizeQuality; fill-rule:evenodd; clip-rule:evenodd"
viewBox="0 0 45 14"
 xmlns:xlink="http://www.w3.org/1999/xlink">
 <defs>
  <style type="text/css">
   <![CDATA[
    .fil0 {fill:#5298AA;fill-rule:nonzero}
   ]]>
  </style>
 </defs>
 <g id="Слой_x0020_4">
  <metadata id="CorelCorpID_0Corel-Layer"/>
  <path class="fil0" d="M1 13c0,-1 0,-1 0,-1 0,0 -1,0 -1,0 0,-1 1,-1 1,-1 0,-1 1,-2 1,-3 0,0 0,0 1,0 1,-1 7,-2 7,-2 1,-1 9,-6 10,-6 4,0 0,2 3,2 3,0 5,1 8,2l0 0c3,-1 5,-1 5,-1 0,0 -1,1 -3,1 0,0 0,0 0,1l1 -1c3,0 5,0 5,0 0,0 -1,1 -4,1 1,1 2,1 3,1 1,1 2,1 2,2l0 0c0,0 0,0 0,0l0 0 1 0c0,1 0,1 0,2l0 0 0 0 0 0 0 0c0,0 0,1 0,1l0 0c2,0 4,0 4,1 0,0 -2,0 -4,0 0,0 0,0 0,1 2,0 4,0 4,0 0,1 -3,1 -8,1 -1,0 -3,0 -5,0 0,0 0,0 0,0 -2,0 -4,0 -6,0l-20 0 0 0c-4,0 -6,0 -6,-1 0,0 0,0 1,0l0 0 0 0z"/>
 </g>
</svg>
