<?xml version="1.0" encoding="UTF-8"?>
<!DOCTYPE svg PUBLIC "-//W3C//DTD SVG 1.1//EN" "http://www.w3.org/Graphics/SVG/1.1/DTD/svg11.dtd">
<!-- Creator: CorelDRAW X8 -->
<svg xmlns="http://www.w3.org/2000/svg" xml:space="preserve" width="180.495mm" height="5.6827mm" version="1.1" style="shape-rendering:geometricPrecision; text-rendering:geometricPrecision; image-rendering:optimizeQuality; fill-rule:evenodd; clip-rule:evenodd"
viewBox="0 0 1610 51"
 xmlns:xlink="http://www.w3.org/1999/xlink">
 <defs>
  <style type="text/css">
   <![CDATA[
    .fil2 {fill:url(#id0)}
    .fil1 {fill:url(#id1)}
    .fil3 {fill:url(#id2)}
    .fil0 {fill:url(#id3)}
   ]]>
  </style>
  <linearGradient id="id0" gradientUnits="userSpaceOnUse" x1="92.9331" y1="-680.168" x2="92.9331" y2="1650.08">
   <stop offset="0" style="stop-opacity:1; stop-color:#CA52EC"/>
   <stop offset="1" style="stop-opacity:1; stop-color:#2D8E60"/>
  </linearGradient>
  <linearGradient id="id1" gradientUnits="userSpaceOnUse" x1="2240.93" y1="-680.168" x2="2240.93" y2="1650.08">
   <stop offset="0" style="stop-opacity:1; stop-color:#C14EDD"/>
   <stop offset="1" style="stop-opacity:1; stop-color:#348460"/>
  </linearGradient>
  <linearGradient id="id2" gradientUnits="userSpaceOnUse" x1="106.46" y1="-680.168" x2="106.46" y2="1650.08">
   <stop offset="0" style="stop-opacity:1; stop-color:#D066EE"/>
   <stop offset="1" style="stop-opacity:1; stop-color:#459A72"/>
  </linearGradient>
  <linearGradient id="id3" gradientUnits="userSpaceOnUse" xlink:href="#id0" x1="1720.7" y1="-680.168" x2="1720.7" y2="1650.08">
  </linearGradient>
 </defs>
 <g id="Слой_x0020_4">
  <metadata id="CorelCorpID_0Corel-Layer"/>
  <path class="fil0" d="M132 33l0 0 979 -6 0 -6 -979 -6c0,0 0,0 0,0 -5,0 -9,4 -9,9 0,5 4,9 9,9zm990 -6l9 0 0 -6 -9 0 0 6zm20 0l468 -3 -468 -3 0 6 0 0z"/>
  <path class="fil1" d="M1111 27l11 0 0 -6 -11 0 0 6zm20 0l11 0 0 -6 -11 0 0 6z"/>
  <path class="fil2" d="M105 51l-7 -27 7 -24 -105 22 105 29zm-10 -44l-16 18 -55 -1 71 -17 0 0z"/>
  <polygon class="fil3" points="79,25 95,7 24,24 "/>
 </g>
</svg>
