<?xml version="1.0" encoding="UTF-8"?>
<!DOCTYPE svg PUBLIC "-//W3C//DTD SVG 1.1//EN" "http://www.w3.org/Graphics/SVG/1.1/DTD/svg11.dtd">
<!-- Creator: CorelDRAW X8 -->
<svg xmlns="http://www.w3.org/2000/svg" xml:space="preserve" width="144.044mm" height="5.6638mm" version="1.1" style="shape-rendering:geometricPrecision; text-rendering:geometricPrecision; image-rendering:optimizeQuality; fill-rule:evenodd; clip-rule:evenodd"
viewBox="0 0 31876 1253"
 xmlns:xlink="http://www.w3.org/1999/xlink">
 <defs>
  <style type="text/css">
   <![CDATA[
    .fil1 {fill:url(#id0)}
    .fil0 {fill:url(#id1)}
    .fil2 {fill:url(#id2)}
   ]]>
  </style>
  <linearGradient id="id0" gradientUnits="userSpaceOnUse" x1="66819.9" y1="-13622.2" x2="66819.9" y2="44207.4">
   <stop offset="0" style="stop-opacity:1; stop-color:#92BAF1"/>
   <stop offset="1" style="stop-opacity:1; stop-color:#C5FDFF"/>
  </linearGradient>
  <linearGradient id="id1" gradientUnits="userSpaceOnUse" xlink:href="#id0" x1="34632.7" y1="-13622.2" x2="34632.7" y2="44207.4">
  </linearGradient>
  <linearGradient id="id2" gradientUnits="userSpaceOnUse" x1="66549" y1="-13622.2" x2="66549" y2="44207.4">
   <stop offset="0" style="stop-opacity:1; stop-color:#BED6F7"/>
   <stop offset="1" style="stop-opacity:1; stop-color:#DCFEFF"/>
  </linearGradient>
 </defs>
 <g id="Слой_x0020_5">
  <metadata id="CorelCorpID_0Corel-Layer"/>
  <path class="fil0" d="M29249 822c123,0 222,-96 224,-221 0,-120 -99,-222 -221,-222l-5 0 -29247 222 0 0 29247 221c0,0 2,0 2,0z"/>
  <path class="fil1" d="M29784 1253l2092 -702 -2092 -551 132 601 -132 652zm198 -1076l1425 424 -1114 26 -311 -450z"/>
  <polygon class="fil2" points="30293,627 31407,601 29982,177 "/>
 </g>
</svg>
