<?xml version="1.0" encoding="UTF-8"?>
<!DOCTYPE svg PUBLIC "-//W3C//DTD SVG 1.1//EN" "http://www.w3.org/Graphics/SVG/1.1/DTD/svg11.dtd">
<!-- Creator: CorelDRAW X8 -->
<svg xmlns="http://www.w3.org/2000/svg" xml:space="preserve" width="39.4677mm" height="12.5387mm" version="1.1" style="shape-rendering:geometricPrecision; text-rendering:geometricPrecision; image-rendering:optimizeQuality; fill-rule:evenodd; clip-rule:evenodd"
viewBox="0 0 89 28"
 xmlns:xlink="http://www.w3.org/1999/xlink">
 <defs>
  <style type="text/css">
   <![CDATA[
    .fil5 {fill:#5A1047;fill-rule:nonzero}
    .fil0 {fill:#66074D;fill-rule:nonzero}
    .fil3 {fill:#6E1949;fill-rule:nonzero}
    .fil9 {fill:#704469;fill-rule:nonzero}
    .fil7 {fill:#736383;fill-rule:nonzero}
    .fil11 {fill:#7E667F;fill-rule:nonzero}
    .fil10 {fill:#81859A;fill-rule:nonzero}
    .fil2 {fill:#82075D;fill-rule:nonzero}
    .fil8 {fill:#8A3E77;fill-rule:nonzero}
    .fil6 {fill:#AA7783;fill-rule:nonzero}
    .fil4 {fill:#AE3965;fill-rule:nonzero}
    .fil1 {fill:#F03E8E;fill-rule:nonzero}
   ]]>
  </style>
 </defs>
 <g id="Слой_x0020_6">
  <metadata id="CorelCorpID_0Corel-Layer"/>
  <g id="_810146704">
   <path class="fil0" d="M27 7l10 2 0 0c2,0 3,1 3,2 0,0 -2,0 -3,0l0 0 -10 -2c-5,-1 -9,-2 -9,-3 0,0 4,0 9,1z"/>
   <path class="fil0" d="M38 21l39 0 0 0c6,0 11,1 11,2 0,1 -5,2 -11,2l0 0 -39 0c-21,0 -38,-1 -38,-2 0,-1 17,-2 38,-2l0 0z"/>
   <path class="fil1" d="M8 26l0 0 0 0c0,0 1,0 1,0 1,1 3,1 6,2 3,0 6,0 10,0 0,0 1,0 2,0 5,0 24,0 39,0 1,0 2,0 2,0 5,0 9,0 12,0 4,-1 6,-1 7,-2 1,0 -1,-8 -3,-10 0,0 0,0 0,0 -4,-2 -14,-4 -15,-4 -2,-1 -18,-12 -20,-12 -9,0 0,4 -5,4 -10,1 -21,5 -24,6 -2,1 -5,2 -7,3 -1,0 -3,1 -4,2l0 0c0,0 0,1 -1,1l0 0 0 0c0,1 0,2 -1,3l0 0 0 1 0 0 0 0c0,1 0,1 0,2 0,1 0,3 1,4l0 0 0 0z"/>
   <path class="fil2" d="M8 26l0 0 0 0 0 0c0,0 1,0 1,0 1,1 3,1 6,2 3,0 6,0 10,0 0,0 1,0 2,0 5,0 24,0 39,0 1,0 2,0 2,0 5,0 9,0 12,0 4,-1 6,-1 7,-2 1,0 -1,-8 -3,-10 -1,0 -1,0 -3,-1 -2,-1 -8,-2 -15,-2 -20,0 -49,1 -51,1 -3,1 -7,2 -8,5l0 0 0 1 0 0 0 0c0,1 0,1 0,2 0,1 0,3 1,4l0 0 0 0z"/>
   <path class="fil0" d="M35 7c1,-1 2,-1 3,-1 5,-1 8,-2 15,-1 6,1 10,6 12,7l1 1c-17,0 -23,0 -29,0l-2 -6 0 0z"/>
   <path class="fil1" d="M38 17l0 0c0,2 1,3 2,4l0 1 0 0 0 0c1,0 1,0 1,0l1 0 0 0c2,2 8,3 13,4l0 0c0,0 0,0 0,0l1 0 0 0 0 0c1,0 3,0 4,-1 0,0 1,0 1,0l0 0 0 0 0 0c0,0 1,-1 1,-1l0 0c1,-2 2,-3 2,-5 1,-1 1,-2 1,-2 1,-1 1,-2 1,-3 0,0 -21,0 -28,0l0 0 0 0c0,0 -1,0 -1,0 0,1 0,2 1,3l0 0 0 0z"/>
   <path class="fil3" d="M57 26c1,0 2,0 3,-1l0 0c-1,1 -2,1 -3,1 0,0 -1,0 -1,0l0 0 0 0 0 0 0 0 0 0c0,0 1,0 1,0zm4 -1l0 0 0 0 0 0 0 0c0,-1 1,-1 1,-1l0 0 0 0 0 0c0,0 -1,1 -1,1l0 0 0 0zm-21 -3l0 0 0 0 0 0 0 -1c-1,-1 -2,-2 -2,-4l0 0 0 0 0 0c0,2 1,3 2,4l0 1 0 0 0 0 0 0z"/>
   <path class="fil4" d="M57 26c1,0 2,0 3,-1l0 0c0,0 1,0 1,0l0 0 0 0 0 0c0,0 1,-1 1,-1l0 0c0,0 -1,0 -1,0 -7,0 -17,-2 -20,-4 -1,-1 -2,-4 -3,-6l0 0 -1 0c0,1 0,2 1,3l0 0 0 0c0,2 1,3 2,4l0 1 0 0 0 0 0 0c0,0 1,0 2,0l0 0c2,2 8,3 13,4l0 0 0 0c0,0 0,0 1,0l0 0 0 0 0 0c0,0 1,0 1,0l0 0z"/>
   <path class="fil0" d="M40 16c0,0 2,1 4,1 2,0 4,-1 4,-1 0,0 -2,0 -4,0 -2,0 -4,0 -4,0z"/>
   <path class="fil5" d="M76 15c1,1 2,2 3,2 0,0 1,1 1,1l0 0 0 0 1 0 0 0c0,0 1,1 1,1l0 0 1 0 0 0c0,0 1,0 1,1 1,0 1,0 1,-1 1,-2 -1,-3 -3,-3 -2,-1 -4,-1 -6,-1z"/>
   <path class="fil0" d="M8 20l0 0c0,0 0,0 1,0 0,0 4,-4 5,-4 -1,0 -3,0 -4,0 0,0 0,0 -1,0l0 0c0,1 -1,2 -1,4l0 0z"/>
   <path class="fil6" d="M8 20c1,-1 4,-3 4,-4 0,0 0,0 0,0 -1,0 -2,0 -3,0l0 0c0,1 -1,2 -1,3 0,1 0,1 0,1l0 0 0 0 0 0z"/>
   <path class="fil7" d="M83 19c0,0 0,0 0,-1 0,-1 0,-1 0,-2l0 0 0 0 0 0 0 0 0 0 0 0 0 0 0 0 0 0 0 0c0,1 0,1 0,2 0,1 0,1 0,1l0 0 0 0 0 0 0 0z"/>
   <path class="fil8" d="M83 19l0 0 -1 0 0 0 0 0 0 0 1 0zm-1 0c0,0 -1,-1 -1,-1l0 0 0 0 0 0 0 0c0,0 0,1 1,1z"/>
   <path class="fil9" d="M83 19c0,0 0,0 0,-1 0,-1 0,-1 0,-2l0 0 0 0 0 0 0 0 0 0 0 0c-1,0 -1,1 -2,1 0,0 0,0 0,0 0,1 0,1 0,1 0,0 1,1 1,1 0,0 0,0 0,0l0 0 0 0 1 0 0 0z"/>
   <path class="fil7" d="M81 18c0,0 0,-1 0,-1 0,0 0,-1 0,-1l0 0 0 0 0 0 0 0 0 0 0 0 0 0 0 0 0 0 0 0 0 0c0,0 0,1 0,1 0,0 0,1 0,1z"/>
   <path class="fil10" d="M81 18c0,0 0,0 0,-1 0,0 0,0 0,0 0,0 0,1 0,1 0,0 0,0 0,0l0 0 0 0 0 0z"/>
   <path class="fil9" d="M81 18c-1,0 -1,0 -1,0l1 0zm-1 0c0,0 0,0 1,0 0,0 0,-1 0,-1 0,0 0,-1 0,-1l0 0 0 0 0 0 0 0 0 0 0 0c-1,0 -2,1 -2,1 0,0 1,1 1,1l0 0 0 0 0 0z"/>
   <path class="fil11" d="M81 18c0,0 0,0 0,0 -1,0 -1,0 -1,0l0 0c0,0 0,0 1,0l0 0z"/>
   <path class="fil0" d="M38 24l40 0 0 0c6,0 11,1 11,2 0,1 -5,2 -11,2l0 0 -40 0c-21,0 -38,-1 -38,-2 0,-1 17,-2 38,-2z"/>
   <path class="fil0" d="M21 9l9 2 0 0c2,0 3,1 3,1 0,1 -1,1 -3,1l0 0 -10 -2c-5,-1 -9,-3 -9,-3 0,-1 4,0 10,1z"/>
  </g>
 </g>
</svg>
