<?xml version="1.0" encoding="UTF-8"?>
<!DOCTYPE svg PUBLIC "-//W3C//DTD SVG 1.1//EN" "http://www.w3.org/Graphics/SVG/1.1/DTD/svg11.dtd">
<!-- Creator: CorelDRAW X8 -->
<svg xmlns="http://www.w3.org/2000/svg" xml:space="preserve" width="37.5287mm" height="11.9283mm" version="1.1" style="shape-rendering:geometricPrecision; text-rendering:geometricPrecision; image-rendering:optimizeQuality; fill-rule:evenodd; clip-rule:evenodd"
viewBox="0 0 71 23"
 xmlns:xlink="http://www.w3.org/1999/xlink">
 <defs>
  <style type="text/css">
   <![CDATA[
    .fil0 {fill:#3C2E4B;fill-rule:nonzero}
    .fil3 {fill:#56475D;fill-rule:nonzero}
    .fil7 {fill:#575369;fill-rule:nonzero}
    .fil5 {fill:#5A758A;fill-rule:nonzero}
    .fil9 {fill:#686B7C;fill-rule:nonzero}
    .fil8 {fill:#6C8D9D;fill-rule:nonzero}
    .fil2 {fill:#756791;fill-rule:nonzero}
    .fil6 {fill:#7C7896;fill-rule:nonzero}
    .fil4 {fill:#8F8C7B;fill-rule:nonzero}
    .fil1 {fill:#E3E5E5;fill-rule:nonzero}
   ]]>
  </style>
 </defs>
 <g id="Слой_x0020_6">
  <metadata id="CorelCorpID_0Corel-Layer"/>
  <g id="_810122704">
   <path class="fil0" d="M49 6l-7 1 0 0c-2,1 -3,1 -3,1 0,1 2,1 3,1l0 0 8 -2c4,0 7,-1 7,-2 0,0 -4,0 -8,1z"/>
   <path class="fil0" d="M41 17l-31 0 0 0c-5,0 -9,1 -9,1 0,1 4,2 9,2l0 0 31 0c17,0 30,-1 30,-2 0,0 -13,-1 -30,-1l0 0z"/>
   <path class="fil1" d="M65 20l0 0 0 1c-1,0 -1,0 -1,0 -1,0 -2,1 -5,1 -2,1 -4,1 -8,1 0,0 0,0 -1,0 -5,0 -19,0 -31,-1 -1,0 -2,0 -3,0 -3,0 -7,0 -9,0 -3,0 -5,0 -5,-1 -1,0 0,-6 2,-8 0,0 0,0 0,-1 3,-1 12,-2 12,-2 1,-1 14,-10 16,-10 7,0 0,3 4,3 8,1 17,4 19,5 2,1 4,1 6,2 1,1 2,1 3,2l0 0c0,0 0,1 0,1l0 0 0 0c1,1 1,2 1,2l0 1 0 0 0 0 0 0c0,0 0,1 0,1 0,2 0,3 0,3l0 0 0 0z"/>
   <path class="fil2" d="M65 20l0 0 0 1 0 0c-1,0 -1,0 -1,0 -1,0 -2,1 -5,1 -2,1 -4,1 -8,1 0,0 0,0 -1,0 -5,0 -19,0 -31,-1 -1,0 -2,0 -3,0 -3,0 -7,0 -9,0 -3,0 -5,0 -5,-1 -1,0 0,-6 2,-8 1,0 1,-1 2,-1 2,-1 7,-2 13,-2 16,0 38,1 40,1 2,1 5,2 6,4l0 1 0 0 0 0 0 0c0,0 0,1 0,1 0,2 0,3 0,3l0 0 0 0z"/>
   <path class="fil0" d="M43 5c-1,0 -1,0 -2,0 -4,-1 -7,-1 -12,-1 -5,1 -8,4 -10,6l0 0c13,0 18,1 23,1l1 -6 0 0z"/>
   <path class="fil2" d="M41 14l0 0c0,1 -1,2 -2,3l0 0 0 0 0 0c0,1 -1,1 -1,1l0 0 0 0c-2,1 -7,2 -11,2l0 0c0,0 0,1 0,1l0 0 0 0 -1 0c-1,0 -2,0 -3,-1 0,0 0,0 -1,0l0 0 0 0 0 0c0,0 0,-1 0,-1l0 0c-1,-1 -2,-2 -2,-4 -1,0 -1,-1 -1,-2 0,0 0,-1 0,-2 0,0 16,0 22,0l0 0 0 0c0,0 0,0 1,0 0,1 -1,2 -1,3l0 0 0 0z"/>
   <path class="fil3" d="M26 21c-1,0 -2,-1 -3,-1l0 0c1,0 2,1 3,1 0,0 0,0 0,0l1 0 0 0 0 0 0 0 -1 0c0,0 0,0 0,0l0 0zm-4 -1l0 0 0 0 0 0 0 0c0,0 0,-1 0,-1l0 0 0 0 0 0c0,0 0,1 0,1l0 0 0 0 0 0zm17 -3l0 0 0 0 0 0 0 0c1,-1 2,-2 2,-3l0 0 0 0 0 0c0,1 -1,2 -2,3l0 0 0 0 0 0 0 0z"/>
   <path class="fil3" d="M26 21c-1,0 -2,-1 -3,-1l0 0c0,0 0,0 -1,0l0 0 0 0 0 0c0,0 0,-1 0,-1l0 0c0,0 0,0 1,0 5,0 13,-2 15,-3 1,-1 2,-3 3,-5l0 0 1 0c0,1 -1,2 -1,3l0 0 0 0c0,1 -1,2 -2,3l0 0 0 0 0 0 0 0c0,0 -1,1 -1,1l0 0c-2,1 -7,2 -11,2l0 0 0 0c0,0 0,1 0,1l0 0 0 0 -1 0c0,0 0,0 0,0l0 0z"/>
   <path class="fil0" d="M39 13c0,0 -1,0 -3,0 -2,0 -3,0 -3,0 0,0 1,-1 3,-1 2,0 3,1 3,1z"/>
   <path class="fil0" d="M10 12c0,1 -1,1 -2,2 0,0 -1,0 -1,0l0 0 0 0 0 0 0 1c-1,0 -1,0 -2,0l0 0 0 0 0 0c0,0 -1,1 -1,1 -1,0 -1,0 -1,0 0,-2 1,-3 3,-3 1,-1 3,-1 4,-1l0 0z"/>
   <path class="fil0" d="M65 16l0 0c0,0 0,0 -1,0 0,0 -4,-3 -4,-4 1,0 2,1 3,1 0,0 0,0 1,0l0 0c0,1 1,1 1,3l0 0z"/>
   <path class="fil4" d="M65 16c-1,-1 -3,-3 -4,-3 0,0 1,0 1,0 0,0 1,0 2,0l0 0c0,1 1,1 1,3 0,0 0,0 0,0l0 0 0 0z"/>
   <path class="fil5" d="M5 15c0,0 0,0 0,-1 0,0 0,-1 0,-1l0 0 0 0 0 0 0 0 0 0 0 0 0 0 0 0 0 0 0 0c0,0 0,1 0,1 0,1 0,1 0,1l0 0 0 0 0 0z"/>
   <path class="fil6" d="M5 15l0 0 0 0 0 0c1,0 1,0 2,0l0 0 0 0c-1,0 -1,0 -2,0l0 0 0 0z"/>
   <path class="fil7" d="M5 15c0,0 0,0 0,-1 0,0 0,-1 0,-1l0 0 0 0 0 0 0 0 0 0 0 0c0,0 1,0 1,1 0,0 0,0 0,0 0,0 1,0 1,1 -1,0 -1,0 -2,0l0 0 0 0 0 0z"/>
   <path class="fil5" d="M7 15c0,-1 0,-1 0,-1l0 0 0 0 0 1zm0 -1c0,0 0,0 -1,0 0,-1 1,-1 1,-1l0 0 0 0 0 0 0 0 0 0 0 0 0 0 0 0 0 0 0 0 0 0c0,0 0,0 0,1 0,0 0,0 0,0l0 0z"/>
   <path class="fil8" d="M7 15c0,-1 -1,-1 -1,-1 0,0 0,0 0,0 1,0 1,0 1,0 0,0 0,0 0,0 0,0 0,0 0,1l0 0 0 0 0 0z"/>
   <path class="fil7" d="M7 14l0 0c0,0 0,0 0,0l0 0zm0 0c0,0 0,0 0,0 0,0 0,0 0,0 0,-1 0,-1 0,-1l0 0 0 0 0 0 0 0 0 0 0 0c0,0 1,0 1,1 0,0 -1,0 -1,0l0 0 0 0 0 0z"/>
   <path class="fil9" d="M7 14c0,0 0,0 0,0 0,0 0,0 0,0l0 0c0,0 0,0 0,0z"/>
   <path class="fil0" d="M41 19l-32 0 0 0c-5,1 -9,1 -9,2 0,1 4,1 9,2l0 0 32 0c16,0 30,-1 30,-2 0,-1 -14,-2 -30,-2z"/>
   <path class="fil0" d="M55 7l-8 1 0 0c-1,1 -2,1 -2,2 0,0 1,0 2,0l0 0 8 -1c4,-1 8,-2 7,-3 0,0 -3,0 -7,1l0 0z"/>
  </g>
 </g>
</svg>
