<?xml version="1.0" encoding="UTF-8"?>
<!DOCTYPE svg PUBLIC "-//W3C//DTD SVG 1.1//EN" "http://www.w3.org/Graphics/SVG/1.1/DTD/svg11.dtd">
<!-- Creator: CorelDRAW X8 -->
<svg xmlns="http://www.w3.org/2000/svg" xml:space="preserve" width="39.9158mm" height="13.5259mm" version="1.1" style="shape-rendering:geometricPrecision; text-rendering:geometricPrecision; image-rendering:optimizeQuality; fill-rule:evenodd; clip-rule:evenodd"
viewBox="0 0 79 27"
 xmlns:xlink="http://www.w3.org/1999/xlink">
 <defs>
  <style type="text/css">
   <![CDATA[
    .fil0 {fill:#181F28;fill-rule:nonzero}
    .fil4 {fill:#2B1A15;fill-rule:nonzero}
    .fil8 {fill:#3F4952;fill-rule:nonzero}
    .fil6 {fill:#436B73;fill-rule:nonzero}
    .fil2 {fill:#4983B2;fill-rule:nonzero}
    .fil10 {fill:#58656D;fill-rule:nonzero}
    .fil9 {fill:#5C868E;fill-rule:nonzero}
    .fil7 {fill:#5F8AAC;fill-rule:nonzero}
    .fil5 {fill:#7B8468;fill-rule:nonzero}
    .fil3 {fill:#9FC0C1;fill-rule:nonzero}
    .fil1 {fill:white;fill-rule:nonzero}
   ]]>
  </style>
 </defs>
 <g id="Слой_x0020_6">
  <metadata id="CorelCorpID_0Corel-Layer"/>
  <g id="_810123056">
   <path class="fil0" d="M59 20l0 0 0 0 0 0 0 0 0 1 0 0 0 0 0 0 0 0 0 0 1 1c0,0 0,0 0,0l0 0 0 0 0 1 0 0 0 0 0 0 0 0 0 1 1 0 0 0c1,2 3,3 5,3 3,0 5,-2 6,-4 0,0 1,0 1,0l0 0c0,0 0,0 0,0l0 -1 0 0 0 0 0 0 0 0c0,0 0,-1 0,-1l0 0 0 0 0 -1c0,0 0,0 0,0l0 0 0 0c0,-4 -3,-7 -7,-7 -4,0 -7,3 -7,7l0 0 0 0z"/>
   <path class="fil0" d="M6 20c0,4 4,7 8,7 3,0 7,-3 7,-7 0,-4 -4,-7 -7,-7 -4,0 -8,3 -8,7z"/>
   <path class="fil1" d="M1 21l0 0 0 1c0,0 1,0 1,0 1,1 3,1 6,2 2,0 5,0 9,0 1,0 1,0 2,0 6,0 24,0 39,0 1,0 2,0 3,0 4,0 8,0 11,-1 4,0 6,0 7,-1 1,0 -1,-8 -3,-10 0,0 0,0 0,0 -4,-2 -14,-4 -15,-4 -2,-1 -9,-5 -11,-6 -4,-2 -9,-2 -14,-2 -10,1 -21,5 -23,6 -3,1 -5,1 -8,3 -1,0 -2,1 -3,2l0 0c0,0 -1,1 -1,1l0 0 0 0c-1,1 -1,2 -1,3l0 0c0,1 0,1 0,1l0 0 0 0c0,1 0,1 0,2 0,1 0,2 1,3l0 0 0 0z"/>
   <path class="fil2" d="M1 21l0 0 0 1 0 0c0,0 1,0 1,0 1,1 3,1 6,2 2,0 5,0 9,0 1,0 1,0 2,0 6,0 24,0 39,0 1,0 2,0 3,0 4,0 8,0 11,-1 4,0 6,0 7,-1 1,0 -1,-8 -3,-10 -1,0 -1,0 -3,-1 -2,-1 -8,-2 -15,-2 -20,0 -48,1 -50,1 -3,1 -7,2 -8,5l0 0c0,1 0,1 0,1l0 0 0 0c0,1 0,1 0,2 0,1 0,2 1,3l0 0 0 0z"/>
   <path class="fil1" d="M6 20c0,1 1,3 2,4 2,0 5,0 9,0 1,0 1,0 2,0 1,-1 2,-3 2,-4 0,-4 -4,-7 -7,-7 -4,0 -8,3 -8,7l0 0z"/>
   <path class="fil0" d="M28 3c1,-1 1,-1 2,-1 6,-1 9,-2 15,-1 6,1 10,6 12,7l1 1c-17,0 -23,0 -29,0l-1 -6 0 0z"/>
   <path class="fil1" d="M59 20c0,1 1,3 2,4 4,0 8,0 11,-1 1,-1 1,-2 1,-3 0,-4 -3,-7 -7,-7 -4,0 -7,3 -7,7l0 0z"/>
   <path class="fil1" d="M30 13l0 0c1,2 2,3 2,4l1 0 0 1 0 0c0,0 0,0 1,0l0 0 0 0c3,2 8,3 13,3l0 0c0,1 1,1 1,1l0 0 0 0 0 0c2,0 3,0 4,-1 1,0 1,0 1,0l0 0 0 0 0 0c1,-1 1,-1 1,-1l0 0c1,-2 2,-3 3,-5 0,-1 0,-2 0,-2 1,-1 1,-2 1,-3 0,0 -21,0 -27,0l0 0 -1 0c0,0 0,0 -1,0 0,1 1,2 1,3l0 0 0 0z"/>
   <path class="fil3" d="M29 10c0,1 1,2 1,3l0 0c1,2 2,3 2,4l1 0 0 1 0 0c0,0 0,0 1,0 3,2 8,3 13,3l0 0c0,1 1,1 1,1l0 0 0 0c2,0 3,0 4,-1 1,0 1,0 1,0l0 0 0 0 0 0c1,-1 1,-1 1,-1l0 0c-6,0 -18,-2 -20,-4 -1,-1 -3,-4 -3,-6l0 0 -2 0 0 0 0 0z"/>
   <path class="fil4" d="M33 12c0,0 1,1 3,1 2,0 4,-1 4,-1 0,0 -2,0 -4,0 -2,0 -3,0 -3,0z"/>
   <path class="fil0" d="M68 11c1,1 2,2 3,2 0,0 1,1 1,1l0 0 0 0 1 0 0 0c0,0 1,1 1,1l0 0 1 0 0 0c0,0 0,0 1,0 1,1 1,1 1,0 1,-2 -1,-3 -3,-3 -2,-1 -4,-1 -6,-1z"/>
   <path class="fil0" d="M1 16c0,0 0,0 0,0 0,0 0,0 1,0 0,0 4,-4 4,-4 -1,-1 -2,0 -3,0 0,0 -1,0 -1,0l0 0c-1,1 -2,2 -1,4l0 0z"/>
   <path class="fil5" d="M1 16c1,-1 4,-3 4,-4 0,0 0,0 -1,0 0,0 -1,0 -2,0l0 0c-1,1 -1,2 -1,3 0,0 0,1 0,1 0,0 0,0 0,0l0 0 0 0z"/>
   <path class="fil6" d="M75 15c0,0 0,-1 0,-1 0,-1 0,-1 0,-2l0 0 0 0 0 0 0 0 0 0 0 0 0 0 0 0 0 0 0 0 0 0c0,1 0,1 0,2 0,0 0,1 0,1l0 0 0 0 0 0 0 0z"/>
   <path class="fil7" d="M75 15l0 0 -1 0 0 0 0 0 0 0 1 0zm-2 -1c0,0 0,0 0,0l0 0 0 0 0 0 -1 0c1,0 1,0 1,0l0 0z"/>
   <path class="fil8" d="M75 15c0,0 0,-1 0,-1 0,-1 0,-1 0,-2l0 0 0 0 0 0 0 0 0 0 0 0c-1,0 -1,1 -2,1 0,0 0,0 0,0 0,1 0,1 0,1 0,0 0,0 0,0 1,1 1,1 1,1l0 0 0 0 1 0 0 0z"/>
   <path class="fil6" d="M73 14c0,-1 0,-1 0,-1 0,0 0,-1 0,-1l0 0 0 0 0 0 0 0 0 0 0 0 0 0 0 0 0 0 0 0 0 0c0,0 0,1 0,1 0,0 0,1 0,1l0 0z"/>
   <path class="fil9" d="M73 14c0,0 0,0 0,-1 0,0 0,0 0,0 0,0 0,0 0,1 0,0 0,0 0,0l0 0 0 0 0 0z"/>
   <path class="fil8" d="M72 14c0,0 0,0 1,0 0,0 0,-1 0,-1 0,0 0,-1 0,-1l0 0 0 0 0 0 0 0 0 0 0 0c-1,0 -2,0 -2,1 0,0 1,1 1,1l0 0 0 0 0 0z"/>
   <path class="fil10" d="M73 14c0,0 0,0 0,0 -1,0 -1,0 -1,0l1 0z"/>
  </g>
 </g>
</svg>
