<?xml version="1.0" encoding="UTF-8"?>
<!DOCTYPE svg PUBLIC "-//W3C//DTD SVG 1.1//EN" "http://www.w3.org/Graphics/SVG/1.1/DTD/svg11.dtd">
<!-- Creator: CorelDRAW X8 -->
<svg xmlns="http://www.w3.org/2000/svg" xml:space="preserve" width="37.8486mm" height="13.4291mm" version="1.1" style="shape-rendering:geometricPrecision; text-rendering:geometricPrecision; image-rendering:optimizeQuality; fill-rule:evenodd; clip-rule:evenodd"
viewBox="0 0 79 28"
 xmlns:xlink="http://www.w3.org/1999/xlink">
 <defs>
  <style type="text/css">
   <![CDATA[
    .fil1 {fill:#2B1A15;fill-rule:nonzero}
    .fil9 {fill:#4B4646;fill-rule:nonzero}
    .fil7 {fill:#4F6767;fill-rule:nonzero}
    .fil11 {fill:#606365;fill-rule:nonzero}
    .fil10 {fill:#648487;fill-rule:nonzero}
    .fil3 {fill:#85815D;fill-rule:nonzero}
    .fil6 {fill:#B38F49;fill-rule:nonzero}
    .fil5 {fill:#BD8F31;fill-rule:nonzero}
    .fil8 {fill:#D4B360;fill-rule:nonzero}
    .fil4 {fill:#EEC25F;fill-rule:nonzero}
    .fil2 {fill:#FCC13D;fill-rule:nonzero}
    .fil0 {fill:white;fill-rule:nonzero}
   ]]>
  </style>
 </defs>
 <g id="Слой_x0020_6">
  <metadata id="CorelCorpID_0Corel-Layer"/>
  <g id="_810134160">
   <polygon class="fil0" points="10,10 7,10 7,3 10,3 "/>
   <polygon class="fil0" points="2,10 0,10 0,3 2,3 "/>
   <path class="fil1" d="M58 21c0,4 3,7 7,7 4,0 7,-3 7,-7 0,-3 -3,-6 -7,-6 -4,0 -7,3 -7,6z"/>
   <path class="fil1" d="M16 21c0,4 3,7 6,7 4,0 7,-3 7,-7 0,-3 -3,-6 -7,-6 -3,0 -6,3 -6,6z"/>
   <path class="fil2" d="M8 8c0,0 1,0 1,0 0,1 0,1 0,1 0,0 0,0 0,0 0,1 0,1 0,1 2,1 3,2 4,2l0 0 0 0c-1,0 -1,1 -1,1l0 0 0 0 0 0c-1,1 -1,2 -1,3l0 0 0 0 0 0 0 0c0,1 0,1 0,2l0 0c0,0 0,1 0,1 0,1 0,1 1,2l0 0 0 0c0,0 0,0 1,0 1,2 60,1 61,1 10,-2 4,-8 -14,-12 -23,-15 -44,-10 -50,-4 0,0 -1,0 -1,1 0,0 0,0 0,0 0,0 0,0 0,1 0,0 -1,0 -1,0l0 0 0 0z"/>
   <path class="fil1" d="M11 18l0 0c0,0 0,1 0,1 0,0 0,0 0,-1 1,0 3,-6 3,-7 0,0 -1,1 -1,1l-1 1 0 0 0 0 0 0c-1,1 -1,2 -1,3l0 0 0 0 0 0 0 0c0,1 0,1 0,2l0 0 0 0z"/>
   <path class="fil3" d="M11 18c1,-2 2,-5 2,-6 0,1 -1,1 -1,1l0 0 0 0 0 0c-1,1 -1,2 -1,3l0 0 0 0 0 0 0 0c0,1 0,1 0,2l0 0 0 0z"/>
   <path class="fil1" d="M33 1c2,0 7,1 13,3 4,2 9,5 10,6l1 1c-13,0 -18,0 -23,0l-1 -10 0 0 0 0z"/>
   <path class="fil4" d="M35 14l0 0c1,1 1,3 2,3l0 0 0 1 0 0c0,0 1,0 1,0l0 0 0 0c2,1 7,2 10,3l1 0c0,0 0,0 0,0l0 0 0 0 0 0c2,0 3,0 4,-1 0,0 0,0 1,0l0 0 0 0 0 0c0,0 0,0 0,-1l0 0c1,-1 2,-2 2,-3 0,-1 1,-2 1,-3 0,0 0,-1 0,-1 0,0 -16,-1 -22,0l0 0c0,0 0,0 -1,0 0,0 1,1 1,2l0 0 0 0z"/>
   <path class="fil5" d="M50 21c1,0 2,0 3,-1l0 0c-1,1 -2,1 -3,1 0,0 0,0 -1,0l0 0 0 0 0 0 0 0 0 0c1,0 1,0 1,0zm4 -1l0 0 0 0 0 0 0 0c0,0 0,-1 0,-1l0 0 0 0 0 0c0,1 0,1 0,1l0 0 0 0 0 0zm-17 -2l0 0 0 0 0 -1 0 0c-1,0 -1,-2 -2,-3l0 0 0 0 0 0c1,1 1,3 2,3l0 0 0 1 0 0 0 0z"/>
   <path class="fil6" d="M50 21c1,0 2,0 3,-1l0 0c0,0 0,0 1,0l0 0 0 0 0 0c0,0 0,0 0,-1l0 0c0,0 0,0 -1,0 -5,0 -13,-2 -15,-3 -1,-1 -2,-3 -3,-4l0 0 -1 0c0,0 1,1 1,2l0 0 0 0c1,1 1,3 2,3l0 0 0 1 0 0 0 0c0,0 1,0 1,0l0 0c2,1 7,2 10,3l1 0 0 0c0,0 0,0 0,0l0 0 0 0 0 0c1,0 1,0 1,0l0 0z"/>
   <path class="fil1" d="M37 13c0,0 1,1 3,1 2,0 3,-1 3,-1 0,0 -1,0 -3,0 -2,0 -3,0 -3,0z"/>
   <path class="fil1" d="M69 16c1,0 2,1 2,1 1,0 1,0 2,1l0 0 0 0 0 0 0 0c0,0 1,0 1,0l0 1 1 0 0 0c0,0 0,0 0,0 1,0 2,0 2,0 0,-2 -2,-3 -3,-3 -2,0 -3,-1 -5,0z"/>
   <path class="fil7" d="M75 19c0,-1 0,-1 0,-1 0,-1 0,-1 0,-1l0 0 0 -1 0 0 0 0 0 0 0 0 0 0 0 0 0 0 0 1 0 0c0,0 0,0 0,1 0,0 0,0 0,1l0 0 0 0 0 0z"/>
   <path class="fil8" d="M75 19l0 0 -1 0 0 -1c0,0 -1,0 -1,0l0 0 0 0c0,0 1,0 1,0l0 1 1 0 0 0z"/>
   <path class="fil9" d="M75 19c0,-1 0,-1 0,-1 0,-1 0,-1 0,-1l0 0 0 -1 0 0 0 0 0 0 0 0c-1,1 -1,1 -2,1 0,0 0,0 0,0 0,0 0,1 0,1 0,0 1,0 1,0l0 1 1 0 0 0z"/>
   <path class="fil7" d="M73 18c0,0 0,0 0,0l0 0 0 0 0 0zm0 -1c0,0 0,0 0,0 0,0 0,-1 0,-1l0 0 0 0 0 0 0 0 0 0 0 0 0 0 0 0 0 0 0 0 0 0c0,0 0,1 0,1 0,0 0,0 0,0l0 0z"/>
   <path class="fil10" d="M73 18c0,0 0,-1 0,-1 0,0 0,0 0,0 0,0 0,0 0,0 0,1 0,1 0,1 0,0 0,0 0,0l0 0 0 0 0 0z"/>
   <path class="fil9" d="M73 18l0 0c0,0 0,0 0,0l0 0zm0 0c0,0 0,0 0,-1 0,0 0,0 0,0 0,0 0,-1 0,-1l0 0 0 0 0 0 0 0 0 0 0 0c0,0 -1,1 -2,1 1,0 1,0 2,1l0 0 0 0 0 0z"/>
   <path class="fil11" d="M73 18c0,0 0,0 0,-1 0,1 0,1 0,1l0 0c0,0 0,0 0,0z"/>
   <path class="fil1" d="M32 1c0,4 1,4 2,10 -4,0 -10,1 -12,-2 -4,-3 0,-7 5,-8 1,0 5,0 5,0l0 0 0 0z"/>
   <path class="fil1" d="M9 7l4 0c0,0 0,0 0,0 0,0 0,0 0,0l-4 0c0,0 0,0 0,0z"/>
   <path class="fil1" d="M8 8l5 0c0,0 0,0 0,0 0,0 0,0 0,0l-4 0c0,0 -1,0 -1,0z"/>
   <path class="fil1" d="M9 8c0,1 0,1 0,1l4 0c0,0 0,0 0,0 0,0 0,-1 0,-1l-4 0z"/>
   <path class="fil1" d="M9 9c0,1 0,1 0,1l4 0c0,0 0,0 0,0 0,0 0,-1 0,-1l-4 0z"/>
   <polygon class="fil1" points="30,15 29,15 29,14 30,14 "/>
   <polygon class="fil1" points="29,17 27,17 27,15 29,15 "/>
   <polygon class="fil1" points="25,17 23,17 23,15 25,15 "/>
   <polygon class="fil1" points="27,15 25,15 25,14 27,14 "/>
   <polygon class="fil1" points="23,15 21,15 21,14 23,14 "/>
   <polygon class="fil1" points="21,17 20,17 20,15 21,15 "/>
   <polygon class="fil1" points="20,15 18,15 18,14 20,14 "/>
   <path class="fil1" d="M65 28c2,0 3,-1 5,-2 -3,0 -7,0 -10,0 1,1 3,2 5,2l0 0 0 0z"/>
   <path class="fil1" d="M22 28c2,0 4,-1 5,-2 -3,0 -6,0 -9,0 1,1 3,2 4,2l0 0 0 0z"/>
  </g>
 </g>
</svg>
